COMMENT vga
STARTFONT 2.1
COMMENT This font was automatically resized by bdfresize-1.5
COMMENT   mag_x = 2/1, mag_y = 2/1, blackness = 1
FONT vga
SIZE 32 75 75
FONTBOUNDINGBOX 16 32 0 -8
STARTPROPERTIES 4
FONT_DESCENT 8
FONT_ASCENT 24
AVERAGE_WIDTH 160
DEFAULT_CHAR 0
ENDPROPERTIES
CHARS 292
STARTCHAR u203A
ENCODING 8250
SWIDTH 1332 0
DWIDTH 16 0
BBX 16 32 0 -8
BITMAP
0000
0000
0000
0000
0000
0000
3C00
3C00
0F00
0F00
03C0
03C0
00F0
00F0
003C
003C
003C
003C
00F0
00F0
03C0
03C0
0F00
0F00
3C00
3C00
0000
0000
0000
0000
0000
0000
ENDCHAR
STARTCHAR u0020
ENCODING 32
SWIDTH 1332 0
DWIDTH 16 0
BBX 16 32 0 -8
BITMAP
0000
0000
0000
0000
0000
0000
0000
0000
0000
0000
0000
0000
0000
0000
0000
0000
0000
0000
0000
0000
0000
0000
0000
0000
0000
0000
0000
0000
0000
0000
0000
0000
ENDCHAR
STARTCHAR u005A
ENCODING 90
SWIDTH 1332 0
DWIDTH 16 0
BBX 16 32 0 -8
BITMAP
0000
0000
0000
0000
FFFC
FFFC
F03C
F03C
C0F0
C0F0
00F0
00F0
03C0
03C0
03C0
03C0
0F00
0F00
0F00
0F00
3C00
3C00
3C0C
3C0C
F03C
F03C
FFFC
FFFC
0000
0000
0000
0000
ENDCHAR
STARTCHAR u00CE
ENCODING 206
SWIDTH 1332 0
DWIDTH 16 0
BBX 16 32 0 -8
BITMAP
0FF0
0FF0
3C3C
3C3C
0000
0000
0FF0
0FF0
03C0
03C0
03C0
03C0
03C0
03C0
03C0
03C0
03C0
03C0
03C0
03C0
03C0
03C0
03C0
03C0
03C0
03C0
0FF0
0FF0
0000
0000
0000
0000
ENDCHAR
STARTCHAR u0076
ENCODING 118
SWIDTH 1332 0
DWIDTH 16 0
BBX 16 32 0 -8
BITMAP
0000
0000
0000
0000
0000
0000
0000
0000
0000
0000
0000
0000
F03C
F03C
F03C
F03C
F03C
F03C
F03C
F03C
FCFC
FCFC
3FF0
3FF0
0FC0
0FC0
0300
0300
0000
0000
0000
0000
ENDCHAR
STARTCHAR u0047
ENCODING 71
SWIDTH 1332 0
DWIDTH 16 0
BBX 16 32 0 -8
BITMAP
0000
0000
0000
0000
0FF0
0FF0
3C3C
3C3C
F00F
F00F
F00F
F00F
F000
F000
F000
F000
F0FF
F0FF
F00F
F00F
F00F
F00F
F00F
F00F
3C3C
3C3C
0FF0
0FF0
0000
0000
0000
0000
ENDCHAR
STARTCHAR u201A
ENCODING 8218
SWIDTH 1332 0
DWIDTH 16 0
BBX 16 32 0 -8
BITMAP
0000
0000
0000
0000
0000
0000
0000
0000
0000
0000
0000
0000
0000
0000
0000
0000
0000
0000
0000
0000
0000
0000
0000
0000
0FC0
0FC0
0FC0
0FC0
03C0
03C0
0F00
0F00
ENDCHAR
STARTCHAR u0066
ENCODING 102
SWIDTH 1332 0
DWIDTH 16 0
BBX 16 32 0 -8
BITMAP
0000
0000
0000
0000
0FF0
0FF0
3C3C
3C3C
3C3C
3C3C
3C00
3C00
FF00
FF00
3C00
3C00
3C00
3C00
3C00
3C00
3C00
3C00
3C00
3C00
3C00
3C00
FF00
FF00
0000
0000
0000
0000
ENDCHAR
STARTCHAR u2212
ENCODING 8722
SWIDTH 1332 0
DWIDTH 16 0
BBX 16 32 0 -8
BITMAP
0000
0000
0000
0000
0000
0000
0000
0000
0000
0000
0000
0000
0000
0000
0000
0000
3FFC
3FFC
3FFC
3FFC
0000
0000
0000
0000
0000
0000
0000
0000
0000
0000
0000
0000
ENDCHAR
STARTCHAR u014B
ENCODING 331
SWIDTH 1332 0
DWIDTH 16 0
BBX 16 32 0 -8
BITMAP
0000
0000
0000
0000
0000
0000
0000
0000
0000
0000
F3F0
F3F0
FFFC
FFFC
FC3C
FC3C
F03C
F03C
F03C
F03C
F03C
F03C
F03C
F03C
F03C
F03C
003C
003C
03F0
03F0
0000
0000
ENDCHAR
STARTCHAR u0166
ENCODING 358
SWIDTH 1332 0
DWIDTH 16 0
BBX 16 32 0 -8
BITMAP
0000
0000
0000
0000
FFFF
FFFF
F3CF
F3CF
C3C3
C3C3
03C0
03C0
03CF
03CF
03FC
03FC
0FF0
0FF0
3FC0
3FC0
F3C0
F3C0
03C0
03C0
03C0
03C0
0FF0
0FF0
0000
0000
0000
0000
ENDCHAR
STARTCHAR u2122
ENCODING 8482
SWIDTH 1332 0
DWIDTH 16 0
BBX 16 32 0 -8
BITMAP
0000
0000
0000
0000
0000
0000
0FF0
0FF0
300C
300C
CFC3
CFC3
CC33
CC33
CC33
CC33
CFC3
CFC3
CC33
CC33
CC33
CC33
300C
300C
0FF0
0FF0
0000
0000
0000
0000
0000
0000
ENDCHAR
STARTCHAR u0037
ENCODING 55
SWIDTH 1332 0
DWIDTH 16 0
BBX 16 32 0 -8
BITMAP
0000
0000
0000
0000
FFFC
FFFC
F03C
F03C
003C
003C
00F0
00F0
00F0
00F0
03C0
03C0
03C0
03C0
0F00
0F00
0F00
0F00
0F00
0F00
0F00
0F00
0F00
0F00
0000
0000
0000
0000
ENDCHAR
STARTCHAR u0054
ENCODING 84
SWIDTH 1332 0
DWIDTH 16 0
BBX 16 32 0 -8
BITMAP
0000
0000
0000
0000
FFFF
FFFF
F3CF
F3CF
C3C3
C3C3
03C0
03C0
03C0
03C0
03C0
03C0
03C0
03C0
03C0
03C0
03C0
03C0
03C0
03C0
03C0
03C0
0FF0
0FF0
0000
0000
0000
0000
ENDCHAR
STARTCHAR u00E9
ENCODING 233
SWIDTH 1332 0
DWIDTH 16 0
BBX 16 32 0 -8
BITMAP
0000
0000
0000
0000
00F0
00F0
03C0
03C0
0F00
0F00
0000
0000
3FF0
3FF0
F03C
F03C
F03C
F03C
FFFC
FFFC
F000
F000
F000
F000
F03C
F03C
3FF0
3FF0
0000
0000
0000
0000
ENDCHAR
STARTCHAR u253B
ENCODING 9531
SWIDTH 1332 0
DWIDTH 16 0
BBX 16 32 0 -8
BITMAP
3CF0
3CF0
3CF0
3CF0
3CF0
3CF0
3CF0
3CF0
3CF0
3CF0
3CF0
3CF0
FCFF
FCFF
0000
0000
FFFF
FFFF
0000
0000
0000
0000
0000
0000
0000
0000
0000
0000
0000
0000
0000
0000
ENDCHAR
STARTCHAR u00C2
ENCODING 194
SWIDTH 1332 0
DWIDTH 16 0
BBX 16 32 0 -8
BITMAP
0FC0
0FC0
3CF0
3CF0
0300
0300
0FC0
0FC0
3FF0
3FF0
FCFC
FCFC
F03C
F03C
F03C
F03C
FFFC
FFFC
F03C
F03C
F03C
F03C
F03C
F03C
F03C
F03C
F03C
F03C
0000
0000
0000
0000
ENDCHAR
STARTCHAR u0039
ENCODING 57
SWIDTH 1332 0
DWIDTH 16 0
BBX 16 32 0 -8
BITMAP
0000
0000
0000
0000
0FF0
0FF0
3C3C
3C3C
F00F
F00F
F00F
F00F
F00F
F00F
F00F
F00F
3C3F
3C3F
0FFF
0FFF
000F
000F
3C0F
3C0F
3C3C
3C3C
0FF0
0FF0
0000
0000
0000
0000
ENDCHAR
STARTCHAR u00DC
ENCODING 220
SWIDTH 1332 0
DWIDTH 16 0
BBX 16 32 0 -8
BITMAP
F03C
F03C
F03C
F03C
0000
0000
F03C
F03C
F03C
F03C
F03C
F03C
F03C
F03C
F03C
F03C
F03C
F03C
F03C
F03C
F03C
F03C
F03C
F03C
F03C
F03C
3FF0
3FF0
0000
0000
0000
0000
ENDCHAR
STARTCHAR u013C
ENCODING 316
SWIDTH 1332 0
DWIDTH 16 0
BBX 16 32 0 -8
BITMAP
0000
0000
0000
0000
0FC0
0FC0
03C0
03C0
03C0
03C0
03C0
03C0
03C0
03C0
03C0
03C0
03C0
03C0
03C0
03C0
03C0
03C0
03C0
03C0
03C0
03C0
0FF0
0FF0
00F0
00F0
3FC0
3FC0
ENDCHAR
STARTCHAR u00A3
ENCODING 163
SWIDTH 1332 0
DWIDTH 16 0
BBX 16 32 0 -8
BITMAP
0000
0000
0000
0000
03F0
03F0
0F3C
0F3C
0F00
0F00
0F00
0F00
0F00
0F00
FFF0
FFF0
0F00
0F00
0F00
0F00
0F00
0F00
FF0F
FF0F
CFCF
CFCF
FCFC
FCFC
0000
0000
0000
0000
ENDCHAR
STARTCHAR u2514
ENCODING 9492
SWIDTH 1332 0
DWIDTH 16 0
BBX 16 32 0 -8
BITMAP
03C0
03C0
03C0
03C0
03C0
03C0
03C0
03C0
03C0
03C0
03C0
03C0
03C0
03C0
03FF
03FF
0000
0000
0000
0000
0000
0000
0000
0000
0000
0000
0000
0000
0000
0000
0000
0000
ENDCHAR
STARTCHAR u0059
ENCODING 89
SWIDTH 1332 0
DWIDTH 16 0
BBX 16 32 0 -8
BITMAP
0000
0000
0000
0000
F00F
F00F
F00F
F00F
F00F
F00F
F00F
F00F
FC3F
FC3F
3FFC
3FFC
0FF0
0FF0
03C0
03C0
03C0
03C0
03C0
03C0
03C0
03C0
0FF0
0FF0
0000
0000
0000
0000
ENDCHAR
STARTCHAR u00AF
ENCODING 175
SWIDTH 1332 0
DWIDTH 16 0
BBX 16 32 0 -8
BITMAP
3FF0
3FF0
0000
0000
0000
0000
0000
0000
0000
0000
0000
0000
0000
0000
0000
0000
0000
0000
0000
0000
0000
0000
0000
0000
0000
0000
0000
0000
0000
0000
0000
0000
ENDCHAR
STARTCHAR u0023
ENCODING 35
SWIDTH 1332 0
DWIDTH 16 0
BBX 16 32 0 -8
BITMAP
0000
0000
0000
0000
3CF0
3CF0
3CF0
3CF0
3CF0
3CF0
FFFC
FFFC
FFFC
FFFC
3CF0
3CF0
3CF0
3CF0
3CF0
3CF0
FFFC
FFFC
FFFC
FFFC
3CF0
3CF0
3CF0
3CF0
3CF0
3CF0
0000
0000
ENDCHAR
STARTCHAR u00D0
ENCODING 208
SWIDTH 1332 0
DWIDTH 16 0
BBX 16 32 0 -8
BITMAP
0000
0000
0000
0000
FFF0
FFF0
3C3C
3C3C
3C0F
3C0F
3C0F
3C0F
3C0F
3C0F
FF0F
FF0F
FF0F
FF0F
3C0F
3C0F
3C0F
3C0F
3C0F
3C0F
3C3C
3C3C
FFF0
FFF0
0000
0000
0000
0000
ENDCHAR
STARTCHAR uF804
ENCODING 63492
SWIDTH 1332 0
DWIDTH 16 0
BBX 16 32 0 -8
BITMAP
0000
0000
0000
0000
0000
0000
0000
0000
0000
0000
0000
0000
0000
0000
0000
0000
0000
0000
0000
0000
0000
0000
0000
0000
0000
0000
0000
0000
FFFF
FFFF
0000
0000
ENDCHAR
STARTCHAR u2423
ENCODING 9251
SWIDTH 1332 0
DWIDTH 16 0
BBX 16 32 0 -8
BITMAP
0000
0000
0000
0000
0000
0000
0000
0000
0000
0000
0000
0000
0000
0000
0000
0000
0000
0000
0000
0000
0000
0000
0000
0000
0000
0000
F00F
F00F
FFFF
FFFF
0000
0000
ENDCHAR
STARTCHAR u201B
ENCODING 8219
SWIDTH 1332 0
DWIDTH 16 0
BBX 16 32 0 -8
BITMAP
0000
0000
0FC0
0FC0
0FC0
0FC0
0F00
0F00
03C0
03C0
0000
0000
0000
0000
0000
0000
0000
0000
0000
0000
0000
0000
0000
0000
0000
0000
0000
0000
0000
0000
0000
0000
ENDCHAR
STARTCHAR u005D
ENCODING 93
SWIDTH 1332 0
DWIDTH 16 0
BBX 16 32 0 -8
BITMAP
0000
0000
0000
0000
0FF0
0FF0
00F0
00F0
00F0
00F0
00F0
00F0
00F0
00F0
00F0
00F0
00F0
00F0
00F0
00F0
00F0
00F0
00F0
00F0
00F0
00F0
0FF0
0FF0
0000
0000
0000
0000
ENDCHAR
STARTCHAR u0145
ENCODING 325
SWIDTH 1332 0
DWIDTH 16 0
BBX 16 32 0 -8
BITMAP
0000
0000
0000
0000
F03C
F03C
F03C
F03C
FC3C
FC3C
FC3C
FC3C
FF3C
FF3C
FF3C
FF3C
F3FC
F3FC
F3FC
F3FC
F0FC
F0FC
F0FC
F0FC
F03C
F03C
F03C
F03C
00F0
00F0
3FC0
3FC0
ENDCHAR
STARTCHAR u0123
ENCODING 291
SWIDTH 1332 0
DWIDTH 16 0
BBX 16 32 0 -8
BITMAP
0000
0000
0000
0000
0FF0
0FF0
3C00
3C00
0F00
0F00
0000
0000
3FCF
3FCF
F03C
F03C
F03C
F03C
F03C
F03C
F03C
F03C
F03C
F03C
3FFC
3FFC
003C
003C
F03C
F03C
3FF0
3FF0
ENDCHAR
STARTCHAR u0072
ENCODING 114
SWIDTH 1332 0
DWIDTH 16 0
BBX 16 32 0 -8
BITMAP
0000
0000
0000
0000
0000
0000
0000
0000
0000
0000
0000
0000
F3FC
F3FC
3F0F
3F0F
3C0F
3C0F
3C00
3C00
3C00
3C00
3C00
3C00
3C00
3C00
FF00
FF00
0000
0000
0000
0000
ENDCHAR
STARTCHAR u00C7
ENCODING 199
SWIDTH 1332 0
DWIDTH 16 0
BBX 16 32 0 -8
BITMAP
0000
0000
0000
0000
0FF0
0FF0
3C3C
3C3C
F00F
F00F
F00F
F00F
F000
F000
F000
F000
F000
F000
F000
F000
F00F
F00F
F00F
F00F
3C3C
3C3C
0FF0
0FF0
00F0
00F0
3FC0
3FC0
ENDCHAR
STARTCHAR u00E2
ENCODING 226
SWIDTH 1332 0
DWIDTH 16 0
BBX 16 32 0 -8
BITMAP
0000
0000
0000
0000
0300
0300
0FC0
0FC0
3CF0
3CF0
0000
0000
3FF0
3FF0
003C
003C
3FFC
3FFC
F03C
F03C
F03C
F03C
F03C
F03C
F03C
F03C
3FCF
3FCF
0000
0000
0000
0000
ENDCHAR
STARTCHAR u003A
ENCODING 58
SWIDTH 1332 0
DWIDTH 16 0
BBX 16 32 0 -8
BITMAP
0000
0000
0000
0000
0000
0000
0000
0000
0000
0000
0000
0000
0FC0
0FC0
0FC0
0FC0
0000
0000
0000
0000
0000
0000
0000
0000
0FC0
0FC0
0FC0
0FC0
0000
0000
0000
0000
ENDCHAR
STARTCHAR u00D3
ENCODING 211
SWIDTH 1332 0
DWIDTH 16 0
BBX 16 32 0 -8
BITMAP
00F0
00F0
03C0
03C0
0C00
0C00
0FF0
0FF0
3C3C
3C3C
F00F
F00F
F00F
F00F
F00F
F00F
F00F
F00F
F00F
F00F
F00F
F00F
F00F
F00F
3C3C
3C3C
0FF0
0FF0
0000
0000
0000
0000
ENDCHAR
STARTCHAR u017E
ENCODING 382
SWIDTH 1332 0
DWIDTH 16 0
BBX 16 32 0 -8
BITMAP
0000
0000
0000
0000
0000
0000
3CF0
3CF0
0FC0
0FC0
0000
0000
FFFC
FFFC
F03C
F03C
00F0
00F0
03C0
03C0
0F00
0F00
3C00
3C00
F03C
F03C
FFFC
FFFC
0000
0000
0000
0000
ENDCHAR
STARTCHAR u0065
ENCODING 101
SWIDTH 1332 0
DWIDTH 16 0
BBX 16 32 0 -8
BITMAP
0000
0000
0000
0000
0000
0000
0000
0000
0000
0000
0000
0000
3FF0
3FF0
F03C
F03C
F03C
F03C
FFFC
FFFC
F000
F000
F000
F000
F03C
F03C
3FF0
3FF0
0000
0000
0000
0000
ENDCHAR
STARTCHAR u0049
ENCODING 73
SWIDTH 1332 0
DWIDTH 16 0
BBX 16 32 0 -8
BITMAP
0000
0000
0000
0000
0FF0
0FF0
03C0
03C0
03C0
03C0
03C0
03C0
03C0
03C0
03C0
03C0
03C0
03C0
03C0
03C0
03C0
03C0
03C0
03C0
03C0
03C0
0FF0
0FF0
0000
0000
0000
0000
ENDCHAR
STARTCHAR u004C
ENCODING 76
SWIDTH 1332 0
DWIDTH 16 0
BBX 16 32 0 -8
BITMAP
0000
0000
0000
0000
FF00
FF00
3C00
3C00
3C00
3C00
3C00
3C00
3C00
3C00
3C00
3C00
3C00
3C00
3C00
3C00
3C00
3C00
3C03
3C03
3C0F
3C0F
FFFF
FFFF
0000
0000
0000
0000
ENDCHAR
STARTCHAR u0137
ENCODING 311
SWIDTH 1332 0
DWIDTH 16 0
BBX 16 32 0 -8
BITMAP
0000
0000
0000
0000
FC00
FC00
3C00
3C00
3C00
3C00
3C00
3C00
3C3C
3C3C
3C3C
3C3C
3CF0
3CF0
3FC0
3FC0
3CF0
3CF0
3C3C
3C3C
3C3C
3C3C
FC3C
FC3C
03C0
03C0
FF00
FF00
ENDCHAR
STARTCHAR u003E
ENCODING 62
SWIDTH 1332 0
DWIDTH 16 0
BBX 16 32 0 -8
BITMAP
0000
0000
0000
0000
0000
0000
3C00
3C00
0F00
0F00
03C0
03C0
00F0
00F0
003C
003C
003C
003C
00F0
00F0
03C0
03C0
0F00
0F00
3C00
3C00
0000
0000
0000
0000
0000
0000
ENDCHAR
STARTCHAR u201F
ENCODING 8223
SWIDTH 1332 0
DWIDTH 16 0
BBX 16 32 0 -8
BITMAP
0000
0000
FCFC
FCFC
FCFC
FCFC
3C3C
3C3C
F0F0
F0F0
0000
0000
0000
0000
0000
0000
0000
0000
0000
0000
0000
0000
0000
0000
0000
0000
0000
0000
0000
0000
0000
0000
ENDCHAR
STARTCHAR u2011
ENCODING 8209
SWIDTH 1332 0
DWIDTH 16 0
BBX 16 32 0 -8
BITMAP
0000
0000
0000
0000
0000
0000
0000
0000
0000
0000
0000
0000
0000
0000
0000
0000
0000
0000
3FF0
3FF0
3FF0
3FF0
0000
0000
0000
0000
0000
0000
0000
0000
0000
0000
ENDCHAR
STARTCHAR u0043
ENCODING 67
SWIDTH 1332 0
DWIDTH 16 0
BBX 16 32 0 -8
BITMAP
0000
0000
0000
0000
0FF0
0FF0
3C3C
3C3C
F00F
F00F
F00F
F00F
F000
F000
F000
F000
F000
F000
F000
F000
F00F
F00F
F00F
F00F
3C3C
3C3C
0FF0
0FF0
0000
0000
0000
0000
ENDCHAR
STARTCHAR u00F1
ENCODING 241
SWIDTH 1332 0
DWIDTH 16 0
BBX 16 32 0 -8
BITMAP
0000
0000
0000
0000
0000
0000
3F3C
3F3C
F3F0
F3F0
0000
0000
F3F0
F3F0
3C3C
3C3C
3C3C
3C3C
3C3C
3C3C
3C3C
3C3C
3C3C
3C3C
3C3C
3C3C
3C3C
3C3C
0000
0000
0000
0000
ENDCHAR
STARTCHAR u2501
ENCODING 9473
SWIDTH 1332 0
DWIDTH 16 0
BBX 16 32 0 -8
BITMAP
0000
0000
0000
0000
0000
0000
0000
0000
0000
0000
0000
0000
FFFF
FFFF
0000
0000
FFFF
FFFF
0000
0000
0000
0000
0000
0000
0000
0000
0000
0000
0000
0000
0000
0000
ENDCHAR
STARTCHAR u00C6
ENCODING 198
SWIDTH 1332 0
DWIDTH 16 0
BBX 16 32 0 -8
BITMAP
0000
0000
0000
0000
0FFF
0FFF
3CF0
3CF0
F0F0
F0F0
F0F0
F0F0
F0F0
F0F0
FFFF
FFFF
F0F0
F0F0
F0F0
F0F0
F0F0
F0F0
F0F0
F0F0
F0F0
F0F0
F0FF
F0FF
0000
0000
0000
0000
ENDCHAR
STARTCHAR u253C
ENCODING 9532
SWIDTH 1332 0
DWIDTH 16 0
BBX 16 32 0 -8
BITMAP
03C0
03C0
03C0
03C0
03C0
03C0
03C0
03C0
03C0
03C0
03C0
03C0
03C0
03C0
FFFF
FFFF
03C0
03C0
03C0
03C0
03C0
03C0
03C0
03C0
03C0
03C0
03C0
03C0
03C0
03C0
03C0
03C0
ENDCHAR
STARTCHAR u2580
ENCODING 9600
SWIDTH 1332 0
DWIDTH 16 0
BBX 16 32 0 -8
BITMAP
FFFF
FFFF
FFFF
FFFF
FFFF
FFFF
FFFF
FFFF
FFFF
FFFF
FFFF
FFFF
FFFF
FFFF
FFFF
FFFF
0000
0000
0000
0000
0000
0000
0000
0000
0000
0000
0000
0000
0000
0000
0000
0000
ENDCHAR
STARTCHAR u02DC
ENCODING 732
SWIDTH 1332 0
DWIDTH 16 0
BBX 16 32 0 -8
BITMAP
0000
0000
0000
0000
3F3C
3F3C
F3F0
F3F0
0000
0000
0000
0000
0000
0000
0000
0000
0000
0000
0000
0000
0000
0000
0000
0000
0000
0000
0000
0000
0000
0000
0000
0000
ENDCHAR
STARTCHAR u0118
ENCODING 280
SWIDTH 1332 0
DWIDTH 16 0
BBX 16 32 0 -8
BITMAP
0000
0000
0000
0000
FFFF
FFFF
3C0F
3C0F
3C03
3C03
3C00
3C00
3C30
3C30
3FF0
3FF0
3C30
3C30
3C00
3C00
3C00
3C00
3C03
3C03
3C0F
3C0F
FFFF
FFFF
03C0
03C0
00FF
00FF
ENDCHAR
STARTCHAR u0111
ENCODING 273
SWIDTH 1332 0
DWIDTH 16 0
BBX 16 32 0 -8
BITMAP
0000
0000
0000
0000
00FC
00FC
003C
003C
3FFF
3FFF
003C
003C
3FFC
3FFC
F03C
F03C
F03C
F03C
F03C
F03C
F03C
F03C
F03C
F03C
F03C
F03C
3FCF
3FCF
0000
0000
0000
0000
ENDCHAR
STARTCHAR u00EC
ENCODING 236
SWIDTH 1332 0
DWIDTH 16 0
BBX 16 32 0 -8
BITMAP
0000
0000
0000
0000
0F00
0F00
03C0
03C0
00F0
00F0
0000
0000
0FC0
0FC0
03C0
03C0
03C0
03C0
03C0
03C0
03C0
03C0
03C0
03C0
03C0
03C0
0FF0
0FF0
0000
0000
0000
0000
ENDCHAR
STARTCHAR u0169
ENCODING 361
SWIDTH 1332 0
DWIDTH 16 0
BBX 16 32 0 -8
BITMAP
0000
0000
0000
0000
0000
0000
3F3C
3F3C
F3F0
F3F0
0000
0000
F03C
F03C
F03C
F03C
F03C
F03C
F03C
F03C
F03C
F03C
F03C
F03C
F03C
F03C
3FCF
3FCF
0000
0000
0000
0000
ENDCHAR
STARTCHAR u00A8
ENCODING 168
SWIDTH 1332 0
DWIDTH 16 0
BBX 16 32 0 -8
BITMAP
0000
0000
3CF0
3CF0
3CF0
3CF0
0000
0000
0000
0000
0000
0000
0000
0000
0000
0000
0000
0000
0000
0000
0000
0000
0000
0000
0000
0000
0000
0000
0000
0000
0000
0000
ENDCHAR
STARTCHAR u00DA
ENCODING 218
SWIDTH 1332 0
DWIDTH 16 0
BBX 16 32 0 -8
BITMAP
03C0
03C0
0F00
0F00
F03C
F03C
F03C
F03C
F03C
F03C
F03C
F03C
F03C
F03C
F03C
F03C
F03C
F03C
F03C
F03C
F03C
F03C
F03C
F03C
F03C
F03C
3FF0
3FF0
0000
0000
0000
0000
ENDCHAR
STARTCHAR u00CA
ENCODING 202
SWIDTH 1332 0
DWIDTH 16 0
BBX 16 32 0 -8
BITMAP
0FF0
0FF0
3C3C
3C3C
0000
0000
FFFF
FFFF
3C0F
3C0F
3C03
3C03
3C30
3C30
3FF0
3FF0
3C30
3C30
3C00
3C00
3C00
3C00
3C03
3C03
3C0F
3C0F
FFFF
FFFF
0000
0000
0000
0000
ENDCHAR
STARTCHAR u00F9
ENCODING 249
SWIDTH 1332 0
DWIDTH 16 0
BBX 16 32 0 -8
BITMAP
0000
0000
0000
0000
0F00
0F00
03C0
03C0
00F0
00F0
0000
0000
F03C
F03C
F03C
F03C
F03C
F03C
F03C
F03C
F03C
F03C
F03C
F03C
F03C
F03C
3FCF
3FCF
0000
0000
0000
0000
ENDCHAR
STARTCHAR u00B8
ENCODING 184
SWIDTH 1332 0
DWIDTH 16 0
BBX 16 32 0 -8
BITMAP
0000
0000
0000
0000
0000
0000
0000
0000
0000
0000
0000
0000
0000
0000
0000
0000
0000
0000
0000
0000
0000
0000
0000
0000
0000
0000
00F0
00F0
3FC0
3FC0
0000
0000
ENDCHAR
STARTCHAR u0031
ENCODING 49
SWIDTH 1332 0
DWIDTH 16 0
BBX 16 32 0 -8
BITMAP
0000
0000
0000
0000
03C0
03C0
0FC0
0FC0
3FC0
3FC0
03C0
03C0
03C0
03C0
03C0
03C0
03C0
03C0
03C0
03C0
03C0
03C0
03C0
03C0
03C0
03C0
3FFC
3FFC
0000
0000
0000
0000
ENDCHAR
STARTCHAR u2554
ENCODING 9556
SWIDTH 1332 0
DWIDTH 16 0
BBX 16 32 0 -8
BITMAP
0000
0000
0000
0000
0000
0000
0000
0000
0000
0000
0000
0000
3FFF
3FFF
3C00
3C00
3CFF
3CFF
3CF0
3CF0
3CF0
3CF0
3CF0
3CF0
3CF0
3CF0
3CF0
3CF0
3CF0
3CF0
3CF0
3CF0
ENDCHAR
STARTCHAR u2503
ENCODING 9475
SWIDTH 1332 0
DWIDTH 16 0
BBX 16 32 0 -8
BITMAP
3CF0
3CF0
3CF0
3CF0
3CF0
3CF0
3CF0
3CF0
3CF0
3CF0
3CF0
3CF0
3CF0
3CF0
3CF0
3CF0
3CF0
3CF0
3CF0
3CF0
3CF0
3CF0
3CF0
3CF0
3CF0
3CF0
3CF0
3CF0
3CF0
3CF0
3CF0
3CF0
ENDCHAR
STARTCHAR u250C
ENCODING 9484
SWIDTH 1332 0
DWIDTH 16 0
BBX 16 32 0 -8
BITMAP
0000
0000
0000
0000
0000
0000
0000
0000
0000
0000
0000
0000
0000
0000
03FF
03FF
03C0
03C0
03C0
03C0
03C0
03C0
03C0
03C0
03C0
03C0
03C0
03C0
03C0
03C0
03C0
03C0
ENDCHAR
STARTCHAR u007C
ENCODING 124
SWIDTH 1332 0
DWIDTH 16 0
BBX 16 32 0 -8
BITMAP
0000
0000
0000
0000
03C0
03C0
03C0
03C0
03C0
03C0
03C0
03C0
03C0
03C0
03C0
03C0
03C0
03C0
03C0
03C0
03C0
03C0
03C0
03C0
03C0
03C0
03C0
03C0
0000
0000
0000
0000
ENDCHAR
STARTCHAR u0068
ENCODING 104
SWIDTH 1332 0
DWIDTH 16 0
BBX 16 32 0 -8
BITMAP
0000
0000
0000
0000
FC00
FC00
3C00
3C00
3C00
3C00
3C00
3C00
3FFC
3FFC
3C0F
3C0F
3C0F
3C0F
3C0F
3C0F
3C0F
3C0F
3C0F
3C0F
3C0F
3C0F
FC0F
FC0F
0000
0000
0000
0000
ENDCHAR
STARTCHAR u00EA
ENCODING 234
SWIDTH 1332 0
DWIDTH 16 0
BBX 16 32 0 -8
BITMAP
0000
0000
0000
0000
0300
0300
0FC0
0FC0
3CF0
3CF0
0000
0000
3FF0
3FF0
F03C
F03C
F03C
F03C
FFFC
FFFC
F000
F000
F000
F000
F03C
F03C
3FF0
3FF0
0000
0000
0000
0000
ENDCHAR
STARTCHAR u2010
ENCODING 8208
SWIDTH 1332 0
DWIDTH 16 0
BBX 16 32 0 -8
BITMAP
0000
0000
0000
0000
0000
0000
0000
0000
0000
0000
0000
0000
0000
0000
0000
0000
0000
0000
3FF0
3FF0
3FF0
3FF0
0000
0000
0000
0000
0000
0000
0000
0000
0000
0000
ENDCHAR
STARTCHAR u0060
ENCODING 96
SWIDTH 1332 0
DWIDTH 16 0
BBX 16 32 0 -8
BITMAP
0000
0000
0FC0
0FC0
0FC0
0FC0
0F00
0F00
03C0
03C0
0000
0000
0000
0000
0000
0000
0000
0000
0000
0000
0000
0000
0000
0000
0000
0000
0000
0000
0000
0000
0000
0000
ENDCHAR
STARTCHAR u2591
ENCODING 9617
SWIDTH 1332 0
DWIDTH 16 0
BBX 16 32 0 -8
BITMAP
3030
3030
0303
0303
3030
3030
0303
0303
3030
3030
0303
0303
3030
3030
0303
0303
3030
3030
0303
0303
3030
3030
0303
0303
3030
3030
0303
0303
3030
3030
0303
0303
ENDCHAR
STARTCHAR u0146
ENCODING 326
SWIDTH 1332 0
DWIDTH 16 0
BBX 16 32 0 -8
BITMAP
0000
0000
0000
0000
0000
0000
0000
0000
0000
0000
0000
0000
F3F0
F3F0
3C3C
3C3C
3C3C
3C3C
3C3C
3C3C
3C3C
3C3C
3C3C
3C3C
3C3C
3C3C
3C3C
3C3C
00F0
00F0
3FC0
3FC0
ENDCHAR
STARTCHAR u2524
ENCODING 9508
SWIDTH 1332 0
DWIDTH 16 0
BBX 16 32 0 -8
BITMAP
03C0
03C0
03C0
03C0
03C0
03C0
03C0
03C0
03C0
03C0
03C0
03C0
03C0
03C0
FFC0
FFC0
03C0
03C0
03C0
03C0
03C0
03C0
03C0
03C0
03C0
03C0
03C0
03C0
03C0
03C0
03C0
03C0
ENDCHAR
STARTCHAR u2551
ENCODING 9553
SWIDTH 1332 0
DWIDTH 16 0
BBX 16 32 0 -8
BITMAP
3CF0
3CF0
3CF0
3CF0
3CF0
3CF0
3CF0
3CF0
3CF0
3CF0
3CF0
3CF0
3CF0
3CF0
3CF0
3CF0
3CF0
3CF0
3CF0
3CF0
3CF0
3CF0
3CF0
3CF0
3CF0
3CF0
3CF0
3CF0
3CF0
3CF0
3CF0
3CF0
ENDCHAR
STARTCHAR uF800
ENCODING 63488
SWIDTH 1332 0
DWIDTH 16 0
BBX 16 32 0 -8
BITMAP
3FF0
3FF0
0000
0000
0000
0000
0000
0000
0000
0000
0000
0000
0000
0000
0000
0000
0000
0000
0000
0000
0000
0000
0000
0000
0000
0000
0000
0000
0000
0000
0000
0000
ENDCHAR
STARTCHAR u00A0
ENCODING 160
SWIDTH 1332 0
DWIDTH 16 0
BBX 16 32 0 -8
BITMAP
0000
0000
0000
0000
0000
0000
0000
0000
0000
0000
0000
0000
0000
0000
0000
0000
0000
0000
0000
0000
0000
0000
0000
0000
0000
0000
0000
0000
0000
0000
0000
0000
ENDCHAR
STARTCHAR u002F
ENCODING 47
SWIDTH 1332 0
DWIDTH 16 0
BBX 16 32 0 -8
BITMAP
0000
0000
0000
0000
003C
003C
003C
003C
00F0
00F0
00F0
00F0
03C0
03C0
03C0
03C0
0F00
0F00
0F00
0F00
3C00
3C00
3C00
3C00
F000
F000
F000
F000
0000
0000
0000
0000
ENDCHAR
STARTCHAR u0062
ENCODING 98
SWIDTH 1332 0
DWIDTH 16 0
BBX 16 32 0 -8
BITMAP
0000
0000
0000
0000
FC00
FC00
3C00
3C00
3C00
3C00
3C00
3C00
3FFC
3FFC
3C0F
3C0F
3C0F
3C0F
3C0F
3C0F
3C0F
3C0F
3C0F
3C0F
3C0F
3C0F
F3FC
F3FC
0000
0000
0000
0000
ENDCHAR
STARTCHAR u201E
ENCODING 8222
SWIDTH 1332 0
DWIDTH 16 0
BBX 16 32 0 -8
BITMAP
0000
0000
0000
0000
0000
0000
0000
0000
0000
0000
0000
0000
0000
0000
0000
0000
0000
0000
0000
0000
0000
0000
0000
0000
FCFC
FCFC
FCFC
FCFC
3C3C
3C3C
F0F0
F0F0
ENDCHAR
STARTCHAR u2584
ENCODING 9604
SWIDTH 1332 0
DWIDTH 16 0
BBX 16 32 0 -8
BITMAP
0000
0000
0000
0000
0000
0000
0000
0000
0000
0000
0000
0000
0000
0000
0000
0000
FFFF
FFFF
FFFF
FFFF
FFFF
FFFF
FFFF
FFFF
FFFF
FFFF
FFFF
FFFF
FFFF
FFFF
FFFF
FFFF
ENDCHAR
STARTCHAR u0025
ENCODING 37
SWIDTH 1332 0
DWIDTH 16 0
BBX 16 32 0 -8
BITMAP
0000
0000
0000
0000
FC3C
FC3C
CC3C
CC3C
FCF0
FCF0
00F0
00F0
03C0
03C0
03C0
03C0
0F00
0F00
0F00
0F00
3C00
3C00
3CFC
3CFC
F0CC
F0CC
F0FC
F0FC
0000
0000
0000
0000
ENDCHAR
STARTCHAR u002B
ENCODING 43
SWIDTH 1332 0
DWIDTH 16 0
BBX 16 32 0 -8
BITMAP
0000
0000
0000
0000
0000
0000
0000
0000
0000
0000
0000
0000
03C0
03C0
03C0
03C0
3FFC
3FFC
3FFC
3FFC
03C0
03C0
03C0
03C0
0000
0000
0000
0000
0000
0000
0000
0000
ENDCHAR
STARTCHAR u00C3
ENCODING 195
SWIDTH 1332 0
DWIDTH 16 0
BBX 16 32 0 -8
BITMAP
3F3C
3F3C
F3F0
F3F0
0300
0300
0FC0
0FC0
3FF0
3FF0
FCFC
FCFC
F03C
F03C
F03C
F03C
FFFC
FFFC
F03C
F03C
F03C
F03C
F03C
F03C
F03C
F03C
F03C
F03C
0000
0000
0000
0000
ENDCHAR
STARTCHAR u251C
ENCODING 9500
SWIDTH 1332 0
DWIDTH 16 0
BBX 16 32 0 -8
BITMAP
03C0
03C0
03C0
03C0
03C0
03C0
03C0
03C0
03C0
03C0
03C0
03C0
03C0
03C0
03FF
03FF
03C0
03C0
03C0
03C0
03C0
03C0
03C0
03C0
03C0
03C0
03C0
03C0
03C0
03C0
03C0
03C0
ENDCHAR
STARTCHAR u00C1
ENCODING 193
SWIDTH 1332 0
DWIDTH 16 0
BBX 16 32 0 -8
BITMAP
00F0
00F0
03C0
03C0
0C00
0C00
0FC0
0FC0
3FF0
3FF0
FCFC
FCFC
F03C
F03C
F03C
F03C
FFFC
FFFC
F03C
F03C
F03C
F03C
F03C
F03C
F03C
F03C
F03C
F03C
0000
0000
0000
0000
ENDCHAR
STARTCHAR u0077
ENCODING 119
SWIDTH 1332 0
DWIDTH 16 0
BBX 16 32 0 -8
BITMAP
0000
0000
0000
0000
0000
0000
0000
0000
0000
0000
0000
0000
F00F
F00F
F00F
F00F
F3CF
F3CF
F3CF
F3CF
F3CF
F3CF
F3CF
F3CF
FFFF
FFFF
3C3C
3C3C
0000
0000
0000
0000
ENDCHAR
STARTCHAR u00B4
ENCODING 180
SWIDTH 1332 0
DWIDTH 16 0
BBX 16 32 0 -8
BITMAP
00F0
00F0
03C0
03C0
0F00
0F00
0000
0000
0000
0000
0000
0000
0000
0000
0000
0000
0000
0000
0000
0000
0000
0000
0000
0000
0000
0000
0000
0000
0000
0000
0000
0000
ENDCHAR
STARTCHAR u00F4
ENCODING 244
SWIDTH 1332 0
DWIDTH 16 0
BBX 16 32 0 -8
BITMAP
0000
0000
0000
0000
0300
0300
0FC0
0FC0
3CF0
3CF0
0000
0000
3FF0
3FF0
F03C
F03C
F03C
F03C
F03C
F03C
F03C
F03C
F03C
F03C
F03C
F03C
3FF0
3FF0
0000
0000
0000
0000
ENDCHAR
STARTCHAR u00A2
ENCODING 162
SWIDTH 1332 0
DWIDTH 16 0
BBX 16 32 0 -8
BITMAP
0000
0000
0000
0000
0000
0000
0000
0000
03C0
03C0
03C0
03C0
3FFC
3FFC
F3CF
F3CF
F3C0
F3C0
F3C0
F3C0
F3C0
F3C0
F3C0
F3C0
F3CF
F3CF
3FFC
3FFC
03C0
03C0
03C0
03C0
ENDCHAR
STARTCHAR u00F6
ENCODING 246
SWIDTH 1332 0
DWIDTH 16 0
BBX 16 32 0 -8
BITMAP
0000
0000
0000
0000
0000
0000
3CF0
3CF0
3CF0
3CF0
0000
0000
3FF0
3FF0
F03C
F03C
F03C
F03C
F03C
F03C
F03C
F03C
F03C
F03C
F03C
F03C
3FF0
3FF0
0000
0000
0000
0000
ENDCHAR
STARTCHAR u00F0
ENCODING 240
SWIDTH 1332 0
DWIDTH 16 0
BBX 16 32 0 -8
BITMAP
0000
0000
0000
0000
00FC
00FC
003C
003C
3FFF
3FFF
003C
003C
3FFC
3FFC
F03C
F03C
F03C
F03C
F03C
F03C
F03C
F03C
F03C
F03C
F03C
F03C
3FCF
3FCF
0000
0000
0000
0000
ENDCHAR
STARTCHAR u004A
ENCODING 74
SWIDTH 1332 0
DWIDTH 16 0
BBX 16 32 0 -8
BITMAP
0000
0000
0000
0000
00FF
00FF
003C
003C
003C
003C
003C
003C
003C
003C
003C
003C
003C
003C
003C
003C
F03C
F03C
F03C
F03C
F03C
F03C
3FF0
3FF0
0000
0000
0000
0000
ENDCHAR
STARTCHAR u003D
ENCODING 61
SWIDTH 1332 0
DWIDTH 16 0
BBX 16 32 0 -8
BITMAP
0000
0000
0000
0000
0000
0000
0000
0000
0000
0000
0000
0000
3FFC
3FFC
3FFC
3FFC
0000
0000
3FFC
3FFC
3FFC
3FFC
0000
0000
0000
0000
0000
0000
0000
0000
0000
0000
ENDCHAR
STARTCHAR u00E6
ENCODING 230
SWIDTH 1332 0
DWIDTH 16 0
BBX 16 32 0 -8
BITMAP
0000
0000
0000
0000
0000
0000
0000
0000
0000
0000
0000
0000
3CFC
3CFC
03CF
03CF
03CF
03CF
3FFF
3FFF
F3C0
F3C0
F3C0
F3C0
F3C0
F3C0
3CFF
3CFF
0000
0000
0000
0000
ENDCHAR
STARTCHAR u012B
ENCODING 299
SWIDTH 1332 0
DWIDTH 16 0
BBX 16 32 0 -8
BITMAP
0000
0000
0000
0000
0000
0000
0000
0000
3FF0
3FF0
0000
0000
0FC0
0FC0
03C0
03C0
03C0
03C0
03C0
03C0
03C0
03C0
03C0
03C0
03C0
03C0
0FF0
0FF0
0000
0000
0000
0000
ENDCHAR
STARTCHAR u0073
ENCODING 115
SWIDTH 1332 0
DWIDTH 16 0
BBX 16 32 0 -8
BITMAP
0000
0000
0000
0000
0000
0000
0000
0000
0000
0000
0000
0000
3FF0
3FF0
F03C
F03C
F000
F000
3F00
3F00
03F0
03F0
003C
003C
F03C
F03C
3FF0
3FF0
0000
0000
0000
0000
ENDCHAR
STARTCHAR u2510
ENCODING 9488
SWIDTH 1332 0
DWIDTH 16 0
BBX 16 32 0 -8
BITMAP
0000
0000
0000
0000
0000
0000
0000
0000
0000
0000
0000
0000
0000
0000
FFC0
FFC0
03C0
03C0
03C0
03C0
03C0
03C0
03C0
03C0
03C0
03C0
03C0
03C0
03C0
03C0
03C0
03C0
ENDCHAR
STARTCHAR u0067
ENCODING 103
SWIDTH 1332 0
DWIDTH 16 0
BBX 16 32 0 -8
BITMAP
0000
0000
0000
0000
0000
0000
0000
0000
0000
0000
0000
0000
3FCF
3FCF
F03C
F03C
F03C
F03C
F03C
F03C
F03C
F03C
F03C
F03C
3FFC
3FFC
003C
003C
F03C
F03C
3FF0
3FF0
ENDCHAR
STARTCHAR u255D
ENCODING 9565
SWIDTH 1332 0
DWIDTH 16 0
BBX 16 32 0 -8
BITMAP
3CF0
3CF0
3CF0
3CF0
3CF0
3CF0
3CF0
3CF0
3CF0
3CF0
3CF0
3CF0
FCF0
FCF0
00F0
00F0
FFF0
FFF0
0000
0000
0000
0000
0000
0000
0000
0000
0000
0000
0000
0000
0000
0000
ENDCHAR
STARTCHAR u00C9
ENCODING 201
SWIDTH 1332 0
DWIDTH 16 0
BBX 16 32 0 -8
BITMAP
00FC
00FC
03C0
03C0
FFFF
FFFF
3C0F
3C0F
3C03
3C03
3C00
3C00
3C30
3C30
3FF0
3FF0
3C30
3C30
3C00
3C00
3C00
3C00
3C03
3C03
3C0F
3C0F
FFFF
FFFF
0000
0000
0000
0000
ENDCHAR
STARTCHAR u0071
ENCODING 113
SWIDTH 1332 0
DWIDTH 16 0
BBX 16 32 0 -8
BITMAP
0000
0000
0000
0000
0000
0000
0000
0000
0000
0000
0000
0000
3FCF
3FCF
F03C
F03C
F03C
F03C
F03C
F03C
F03C
F03C
F03C
F03C
F03C
F03C
3FFC
3FFC
003C
003C
00FF
00FF
ENDCHAR
STARTCHAR u0156
ENCODING 342
SWIDTH 1332 0
DWIDTH 16 0
BBX 16 32 0 -8
BITMAP
0000
0000
0000
0000
FFFC
FFFC
3C0F
3C0F
3C0F
3C0F
3C0F
3C0F
3C0F
3C0F
3FFC
3FFC
3CF0
3CF0
3C3C
3C3C
3C3C
3C3C
3C3C
3C3C
3C3C
3C3C
FF3F
FF3F
03C0
03C0
FF00
FF00
ENDCHAR
STARTCHAR u005B
ENCODING 91
SWIDTH 1332 0
DWIDTH 16 0
BBX 16 32 0 -8
BITMAP
0000
0000
0000
0000
0FF0
0FF0
0F00
0F00
0F00
0F00
0F00
0F00
0F00
0F00
0F00
0F00
0F00
0F00
0F00
0F00
0F00
0F00
0F00
0F00
0F00
0F00
0FF0
0FF0
0000
0000
0000
0000
ENDCHAR
STARTCHAR u006B
ENCODING 107
SWIDTH 1332 0
DWIDTH 16 0
BBX 16 32 0 -8
BITMAP
0000
0000
0000
0000
FC00
FC00
3C00
3C00
3C00
3C00
3C00
3C00
3C3C
3C3C
3C3C
3C3C
3CF0
3CF0
3FC0
3FC0
3CF0
3CF0
3C3C
3C3C
3C3C
3C3C
FC3C
FC3C
0000
0000
0000
0000
ENDCHAR
STARTCHAR u0057
ENCODING 87
SWIDTH 1332 0
DWIDTH 16 0
BBX 16 32 0 -8
BITMAP
0000
0000
0000
0000
F00F
F00F
F00F
F00F
F00F
F00F
F00F
F00F
F3CF
F3CF
F3CF
F3CF
F3CF
F3CF
F3CF
F3CF
F3CF
F3CF
FFFF
FFFF
3C3C
3C3C
3C3C
3C3C
0000
0000
0000
0000
ENDCHAR
STARTCHAR u00AE
ENCODING 174
SWIDTH 1332 0
DWIDTH 16 0
BBX 16 32 0 -8
BITMAP
0000
0000
0000
0000
0000
0000
0FF0
0FF0
300C
300C
CFC3
CFC3
CC33
CC33
CC33
CC33
CFC3
CFC3
CC33
CC33
CC33
CC33
300C
300C
0FF0
0FF0
0000
0000
0000
0000
0000
0000
ENDCHAR
STARTCHAR u004D
ENCODING 77
SWIDTH 1332 0
DWIDTH 16 0
BBX 16 32 0 -8
BITMAP
0000
0000
0000
0000
F00F
F00F
FC3F
FC3F
FFFF
FFFF
FFFF
FFFF
F3CF
F3CF
F3CF
F3CF
F3CF
F3CF
F00F
F00F
F00F
F00F
F00F
F00F
F00F
F00F
F00F
F00F
0000
0000
0000
0000
ENDCHAR
STARTCHAR u201C
ENCODING 8220
SWIDTH 1332 0
DWIDTH 16 0
BBX 16 32 0 -8
BITMAP
0000
0000
0F0F
0F0F
3C3C
3C3C
3F3F
3F3F
3F3F
3F3F
0000
0000
0000
0000
0000
0000
0000
0000
0000
0000
0000
0000
0000
0000
0000
0000
0000
0000
0000
0000
0000
0000
ENDCHAR
STARTCHAR u00D6
ENCODING 214
SWIDTH 1332 0
DWIDTH 16 0
BBX 16 32 0 -8
BITMAP
3C3C
3C3C
3C3C
3C3C
0FF0
0FF0
3C3C
3C3C
F00F
F00F
F00F
F00F
F00F
F00F
F00F
F00F
F00F
F00F
F00F
F00F
F00F
F00F
F00F
F00F
3C3C
3C3C
0FF0
0FF0
0000
0000
0000
0000
ENDCHAR
STARTCHAR u00DD
ENCODING 221
SWIDTH 1332 0
DWIDTH 16 0
BBX 16 32 0 -8
BITMAP
0FC0
0FC0
00F0
00F0
F00F
F00F
F00F
F00F
F00F
F00F
F00F
F00F
FC3F
FC3F
3FFC
3FFC
0FF0
0FF0
03C0
03C0
03C0
03C0
03C0
03C0
03C0
03C0
0FF0
0FF0
0000
0000
0000
0000
ENDCHAR
STARTCHAR u0027
ENCODING 39
SWIDTH 1332 0
DWIDTH 16 0
BBX 16 32 0 -8
BITMAP
0000
0000
0FC0
0FC0
0FC0
0FC0
03C0
03C0
0F00
0F00
0000
0000
0000
0000
0000
0000
0000
0000
0000
0000
0000
0000
0000
0000
0000
0000
0000
0000
0000
0000
0000
0000
ENDCHAR
STARTCHAR u0040
ENCODING 64
SWIDTH 1332 0
DWIDTH 16 0
BBX 16 32 0 -8
BITMAP
0000
0000
0000
0000
0000
0000
0000
0000
3FFC
3FFC
F00F
F00F
F00F
F00F
F3FF
F3FF
F3CF
F3CF
F3CF
F3CF
F3FC
F3FC
F000
F000
F000
F000
3FF0
3FF0
0000
0000
0000
0000
ENDCHAR
STARTCHAR u0061
ENCODING 97
SWIDTH 1332 0
DWIDTH 16 0
BBX 16 32 0 -8
BITMAP
0000
0000
0000
0000
0000
0000
0000
0000
0000
0000
0000
0000
3FF0
3FF0
003C
003C
3FFC
3FFC
F03C
F03C
F03C
F03C
F03C
F03C
F03C
F03C
3FCF
3FCF
0000
0000
0000
0000
ENDCHAR
STARTCHAR u02DB
ENCODING 731
SWIDTH 1332 0
DWIDTH 16 0
BBX 16 32 0 -8
BITMAP
0000
0000
0000
0000
0000
0000
0000
0000
0000
0000
0000
0000
0000
0000
0000
0000
0000
0000
0000
0000
0000
0000
0000
0000
0000
0000
0000
0000
0F00
0F00
03FC
03FC
ENDCHAR
STARTCHAR u0029
ENCODING 41
SWIDTH 1332 0
DWIDTH 16 0
BBX 16 32 0 -8
BITMAP
0000
0000
0000
0000
0F00
0F00
03C0
03C0
03C0
03C0
00F0
00F0
00F0
00F0
00F0
00F0
00F0
00F0
00F0
00F0
00F0
00F0
00F0
00F0
03C0
03C0
03C0
03C0
0F00
0F00
0000
0000
ENDCHAR
STARTCHAR u0034
ENCODING 52
SWIDTH 1332 0
DWIDTH 16 0
BBX 16 32 0 -8
BITMAP
0000
0000
0000
0000
03F0
03F0
03F0
03F0
0FF0
0FF0
0FF0
0FF0
3CF0
3CF0
3CF0
3CF0
F0F0
F0F0
F0F3
F0F3
FFFF
FFFF
00F3
00F3
00F0
00F0
03FC
03FC
0000
0000
0000
0000
ENDCHAR
STARTCHAR u0138
ENCODING 312
SWIDTH 1332 0
DWIDTH 16 0
BBX 16 32 0 -8
BITMAP
0000
0000
0000
0000
0000
0000
0000
0000
0000
0000
0000
0000
FC3C
FC3C
3CF0
3CF0
3FC0
3FC0
3FC0
3FC0
3CF0
3CF0
3C3C
3C3C
FC3C
FC3C
0000
0000
0000
0000
0000
0000
ENDCHAR
STARTCHAR u012E
ENCODING 302
SWIDTH 1332 0
DWIDTH 16 0
BBX 16 32 0 -8
BITMAP
0000
0000
0000
0000
0FF0
0FF0
03C0
03C0
03C0
03C0
03C0
03C0
03C0
03C0
03C0
03C0
03C0
03C0
03C0
03C0
03C0
03C0
03C0
03C0
03C0
03C0
0FF0
0FF0
0F00
0F00
03FC
03FC
ENDCHAR
STARTCHAR u2502
ENCODING 9474
SWIDTH 1332 0
DWIDTH 16 0
BBX 16 32 0 -8
BITMAP
03C0
03C0
03C0
03C0
03C0
03C0
03C0
03C0
03C0
03C0
03C0
03C0
03C0
03C0
03C0
03C0
03C0
03C0
03C0
03C0
03C0
03C0
03C0
03C0
03C0
03C0
03C0
03C0
03C0
03C0
03C0
03C0
ENDCHAR
STARTCHAR u00E5
ENCODING 229
SWIDTH 1332 0
DWIDTH 16 0
BBX 16 32 0 -8
BITMAP
0000
0000
0000
0000
0FC0
0FC0
3CF0
3CF0
0FC0
0FC0
0000
0000
3FF0
3FF0
003C
003C
3FFC
3FFC
F03C
F03C
F03C
F03C
F03C
F03C
F03C
F03C
3FCF
3FCF
0000
0000
0000
0000
ENDCHAR
STARTCHAR u002D
ENCODING 45
SWIDTH 1332 0
DWIDTH 16 0
BBX 16 32 0 -8
BITMAP
0000
0000
0000
0000
0000
0000
0000
0000
0000
0000
0000
0000
0000
0000
0000
0000
3FFC
3FFC
3FFC
3FFC
0000
0000
0000
0000
0000
0000
0000
0000
0000
0000
0000
0000
ENDCHAR
STARTCHAR u0104
ENCODING 260
SWIDTH 1332 0
DWIDTH 16 0
BBX 16 32 0 -8
BITMAP
0000
0000
0000
0000
0300
0300
0FC0
0FC0
3FF0
3FF0
FCFC
FCFC
F03C
F03C
F03C
F03C
FFFC
FFFC
F03C
F03C
F03C
F03C
F03C
F03C
F03C
F03C
F0FC
F0FC
03C0
03C0
00FF
00FF
ENDCHAR
STARTCHAR u00ED
ENCODING 237
SWIDTH 1332 0
DWIDTH 16 0
BBX 16 32 0 -8
BITMAP
0000
0000
0000
0000
00F0
00F0
03C0
03C0
0F00
0F00
0000
0000
0FC0
0FC0
03C0
03C0
03C0
03C0
03C0
03C0
03C0
03C0
03C0
03C0
03C0
03C0
0FF0
0FF0
0000
0000
0000
0000
ENDCHAR
STARTCHAR u0172
ENCODING 370
SWIDTH 1332 0
DWIDTH 16 0
BBX 16 32 0 -8
BITMAP
0000
0000
0000
0000
F03C
F03C
F03C
F03C
F03C
F03C
F03C
F03C
F03C
F03C
F03C
F03C
F03C
F03C
F03C
F03C
F03C
F03C
F03C
F03C
F03C
F03C
3FF0
3FF0
03C3
03C3
00FC
00FC
ENDCHAR
STARTCHAR u0044
ENCODING 68
SWIDTH 1332 0
DWIDTH 16 0
BBX 16 32 0 -8
BITMAP
0000
0000
0000
0000
FFF0
FFF0
3C3C
3C3C
3C0F
3C0F
3C0F
3C0F
3C0F
3C0F
3C0F
3C0F
3C0F
3C0F
3C0F
3C0F
3C0F
3C0F
3C0F
3C0F
3C3C
3C3C
FFF0
FFF0
0000
0000
0000
0000
ENDCHAR
STARTCHAR u013B
ENCODING 315
SWIDTH 1332 0
DWIDTH 16 0
BBX 16 32 0 -8
BITMAP
0000
0000
0000
0000
FF00
FF00
3C00
3C00
3C00
3C00
3C00
3C00
3C00
3C00
3C00
3C00
3C00
3C00
3C00
3C00
3C00
3C00
3C03
3C03
3C0F
3C0F
FFFF
FFFF
00FC
00FC
0FF0
0FF0
ENDCHAR
STARTCHAR u0192
ENCODING 402
SWIDTH 1332 0
DWIDTH 16 0
BBX 16 32 0 -8
BITMAP
0000
0000
0000
0000
0FF0
0FF0
3C3C
3C3C
3C3C
3C3C
3C00
3C00
FF00
FF00
3C00
3C00
3C00
3C00
3C00
3C00
3C00
3C00
3C00
3C00
3C00
3C00
FF00
FF00
0000
0000
0000
0000
ENDCHAR
STARTCHAR u0074
ENCODING 116
SWIDTH 1332 0
DWIDTH 16 0
BBX 16 32 0 -8
BITMAP
0000
0000
0000
0000
0000
0000
0F00
0F00
0F00
0F00
0F00
0F00
FFF0
FFF0
0F00
0F00
0F00
0F00
0F00
0F00
0F00
0F00
0F00
0F00
0F3C
0F3C
03F0
03F0
0000
0000
0000
0000
ENDCHAR
STARTCHAR u0152
ENCODING 338
SWIDTH 1332 0
DWIDTH 16 0
BBX 16 32 0 -8
BITMAP
0000
0000
0000
0000
3F3F
3F3F
F3F0
F3F0
F0F0
F0F0
F0F0
F0F0
F0F0
F0F0
F0FC
F0FC
F0FC
F0FC
F0F0
F0F0
F0F0
F0F0
F0F0
F0F0
F3F0
F3F0
3F3F
3F3F
0000
0000
0000
0000
ENDCHAR
STARTCHAR u2513
ENCODING 9491
SWIDTH 1332 0
DWIDTH 16 0
BBX 16 32 0 -8
BITMAP
0000
0000
0000
0000
0000
0000
0000
0000
0000
0000
0000
0000
FFF0
FFF0
00F0
00F0
FCF0
FCF0
3CF0
3CF0
3CF0
3CF0
3CF0
3CF0
3CF0
3CF0
3CF0
3CF0
3CF0
3CF0
3CF0
3CF0
ENDCHAR
STARTCHAR u0064
ENCODING 100
SWIDTH 1332 0
DWIDTH 16 0
BBX 16 32 0 -8
BITMAP
0000
0000
0000
0000
00FC
00FC
003C
003C
003C
003C
003C
003C
3FFC
3FFC
F03C
F03C
F03C
F03C
F03C
F03C
F03C
F03C
F03C
F03C
F03C
F03C
3FCF
3FCF
0000
0000
0000
0000
ENDCHAR
STARTCHAR u0078
ENCODING 120
SWIDTH 1332 0
DWIDTH 16 0
BBX 16 32 0 -8
BITMAP
0000
0000
0000
0000
0000
0000
0000
0000
0000
0000
0000
0000
F03C
F03C
FCFC
FCFC
3FF0
3FF0
0FC0
0FC0
0FC0
0FC0
3FF0
3FF0
FCFC
FCFC
F03C
F03C
0000
0000
0000
0000
ENDCHAR
STARTCHAR u0053
ENCODING 83
SWIDTH 1332 0
DWIDTH 16 0
BBX 16 32 0 -8
BITMAP
0000
0000
0000
0000
3FFC
3FFC
F00F
F00F
F03F
F03F
F000
F000
3C00
3C00
0FF0
0FF0
003C
003C
000F
000F
FC0F
FC0F
FC0F
FC0F
F00F
F00F
3FFC
3FFC
0000
0000
0000
0000
ENDCHAR
STARTCHAR u017D
ENCODING 381
SWIDTH 1332 0
DWIDTH 16 0
BBX 16 32 0 -8
BITMAP
3CF0
3CF0
0FC0
0FC0
FFFC
FFFC
F03C
F03C
C0F0
C0F0
00F0
00F0
03C0
03C0
03C0
03C0
0F00
0F00
0F00
0F00
3C00
3C00
3C0C
3C0C
F03C
F03C
FFFC
FFFC
0000
0000
0000
0000
ENDCHAR
STARTCHAR u00D9
ENCODING 217
SWIDTH 1332 0
DWIDTH 16 0
BBX 16 32 0 -8
BITMAP
3F00
3F00
03C0
03C0
F03C
F03C
F03C
F03C
F03C
F03C
F03C
F03C
F03C
F03C
F03C
F03C
F03C
F03C
F03C
F03C
F03C
F03C
F03C
F03C
F03C
F03C
3FF0
3FF0
0000
0000
0000
0000
ENDCHAR
STARTCHAR u00EF
ENCODING 239
SWIDTH 1332 0
DWIDTH 16 0
BBX 16 32 0 -8
BITMAP
0000
0000
0000
0000
0000
0000
3C3C
3C3C
3C3C
3C3C
0000
0000
0FC0
0FC0
03C0
03C0
03C0
03C0
03C0
03C0
03C0
03C0
03C0
03C0
03C0
03C0
0FF0
0FF0
0000
0000
0000
0000
ENDCHAR
STARTCHAR u2560
ENCODING 9568
SWIDTH 1332 0
DWIDTH 16 0
BBX 16 32 0 -8
BITMAP
3CF0
3CF0
3CF0
3CF0
3CF0
3CF0
3CF0
3CF0
3CF0
3CF0
3CF0
3CF0
3CFF
3CFF
3C00
3C00
3CFF
3CFF
3CF0
3CF0
3CF0
3CF0
3CF0
3CF0
3CF0
3CF0
3CF0
3CF0
3CF0
3CF0
3CF0
3CF0
ENDCHAR
STARTCHAR u007A
ENCODING 122
SWIDTH 1332 0
DWIDTH 16 0
BBX 16 32 0 -8
BITMAP
0000
0000
0000
0000
0000
0000
0000
0000
0000
0000
0000
0000
FFFC
FFFC
F03C
F03C
00F0
00F0
03C0
03C0
0F00
0F00
3C00
3C00
F03C
F03C
FFFC
FFFC
0000
0000
0000
0000
ENDCHAR
STARTCHAR u2533
ENCODING 9523
SWIDTH 1332 0
DWIDTH 16 0
BBX 16 32 0 -8
BITMAP
0000
0000
0000
0000
0000
0000
0000
0000
0000
0000
0000
0000
FFFF
FFFF
0000
0000
FCFF
FCFF
3CF0
3CF0
3CF0
3CF0
3CF0
3CF0
3CF0
3CF0
3CF0
3CF0
3CF0
3CF0
3CF0
3CF0
ENDCHAR
STARTCHAR u0119
ENCODING 281
SWIDTH 1332 0
DWIDTH 16 0
BBX 16 32 0 -8
BITMAP
0000
0000
0000
0000
0000
0000
0000
0000
0000
0000
0000
0000
3FF0
3FF0
F03C
F03C
F03C
F03C
FFFC
FFFC
F000
F000
F000
F000
F03C
F03C
3FF0
3FF0
0F00
0F00
03FC
03FC
ENDCHAR
STARTCHAR u010D
ENCODING 269
SWIDTH 1332 0
DWIDTH 16 0
BBX 16 32 0 -8
BITMAP
0000
0000
0000
0000
0000
0000
3CF0
3CF0
0FC0
0FC0
0000
0000
3FF0
3FF0
F03C
F03C
F000
F000
F000
F000
F000
F000
F000
F000
F03C
F03C
3FF0
3FF0
0000
0000
0000
0000
ENDCHAR
STARTCHAR u00CD
ENCODING 205
SWIDTH 1332 0
DWIDTH 16 0
BBX 16 32 0 -8
BITMAP
00FC
00FC
03C0
03C0
0FF0
0FF0
03C0
03C0
03C0
03C0
03C0
03C0
03C0
03C0
03C0
03C0
03C0
03C0
03C0
03C0
03C0
03C0
03C0
03C0
03C0
03C0
0FF0
0FF0
0000
0000
0000
0000
ENDCHAR
STARTCHAR u002A
ENCODING 42
SWIDTH 1332 0
DWIDTH 16 0
BBX 16 32 0 -8
BITMAP
0000
0000
0000
0000
0000
0000
0000
0000
0000
0000
3C3C
3C3C
3C3C
3C3C
0FF0
0FF0
FFFF
FFFF
FFFF
FFFF
0FF0
0FF0
3C3C
3C3C
3C3C
3C3C
0000
0000
0000
0000
0000
0000
ENDCHAR
STARTCHAR u016B
ENCODING 363
SWIDTH 1332 0
DWIDTH 16 0
BBX 16 32 0 -8
BITMAP
0000
0000
0000
0000
0000
0000
0000
0000
3FF0
3FF0
0000
0000
F03C
F03C
F03C
F03C
F03C
F03C
F03C
F03C
F03C
F03C
F03C
F03C
F03C
F03C
3FCF
3FCF
0000
0000
0000
0000
ENDCHAR
STARTCHAR u002E
ENCODING 46
SWIDTH 1332 0
DWIDTH 16 0
BBX 16 32 0 -8
BITMAP
0000
0000
0000
0000
0000
0000
0000
0000
0000
0000
0000
0000
0000
0000
0000
0000
0000
0000
0000
0000
0000
0000
0000
0000
0FC0
0FC0
0FC0
0FC0
0000
0000
0000
0000
ENDCHAR
STARTCHAR u00EB
ENCODING 235
SWIDTH 1332 0
DWIDTH 16 0
BBX 16 32 0 -8
BITMAP
0000
0000
0000
0000
0000
0000
3CF0
3CF0
3CF0
3CF0
0000
0000
3FF0
3FF0
F03C
F03C
F03C
F03C
FFFC
FFFC
F000
F000
F000
F000
F03C
F03C
3FF0
3FF0
0000
0000
0000
0000
ENDCHAR
STARTCHAR u0024
ENCODING 36
SWIDTH 1332 0
DWIDTH 16 0
BBX 16 32 0 -8
BITMAP
0000
0000
03C0
03C0
3FFC
3FFC
F3CF
F3CF
F3CF
F3CF
FCC0
FCC0
3FC0
3FC0
0FF0
0FF0
03FC
03FC
033F
033F
03CF
03CF
F3CF
F3CF
F3CF
F3CF
3FFC
3FFC
03C0
03C0
03C0
03C0
ENDCHAR
STARTCHAR u00D5
ENCODING 213
SWIDTH 1332 0
DWIDTH 16 0
BBX 16 32 0 -8
BITMAP
3F3C
3F3C
F3F0
F3F0
0000
0000
0FF0
0FF0
3C3C
3C3C
F00F
F00F
F00F
F00F
F00F
F00F
F00F
F00F
F00F
F00F
F00F
F00F
F00F
F00F
3C3C
3C3C
0FF0
0FF0
0000
0000
0000
0000
ENDCHAR
STARTCHAR u005E
ENCODING 94
SWIDTH 1332 0
DWIDTH 16 0
BBX 16 32 0 -8
BITMAP
0000
0000
0000
0000
03C0
03C0
0FF0
0FF0
3C3C
3C3C
F00F
F00F
0000
0000
0000
0000
0000
0000
0000
0000
0000
0000
0000
0000
0000
0000
0000
0000
0000
0000
0000
0000
ENDCHAR
STARTCHAR u0033
ENCODING 51
SWIDTH 1332 0
DWIDTH 16 0
BBX 16 32 0 -8
BITMAP
0000
0000
0000
0000
FFFC
FFFC
F03C
F03C
00F0
00F0
03C0
03C0
0FF0
0FF0
003C
003C
000F
000F
000F
000F
000F
000F
F00F
F00F
3C3C
3C3C
0FF0
0FF0
0000
0000
0000
0000
ENDCHAR
STARTCHAR u016A
ENCODING 362
SWIDTH 1332 0
DWIDTH 16 0
BBX 16 32 0 -8
BITMAP
FFFC
FFFC
0000
0000
F03C
F03C
F03C
F03C
F03C
F03C
F03C
F03C
F03C
F03C
F03C
F03C
F03C
F03C
F03C
F03C
F03C
F03C
F03C
F03C
F03C
F03C
3FF0
3FF0
0000
0000
0000
0000
ENDCHAR
STARTCHAR u0128
ENCODING 296
SWIDTH 1332 0
DWIDTH 16 0
BBX 16 32 0 -8
BITMAP
3F3C
3F3C
F3F0
F3F0
0000
0000
0FF0
0FF0
03C0
03C0
03C0
03C0
03C0
03C0
03C0
03C0
03C0
03C0
03C0
03C0
03C0
03C0
03C0
03C0
03C0
03C0
0FF0
0FF0
0000
0000
0000
0000
ENDCHAR
STARTCHAR u02C7
ENCODING 711
SWIDTH 1332 0
DWIDTH 16 0
BBX 16 32 0 -8
BITMAP
0000
0000
3CF0
3CF0
0FC0
0FC0
0000
0000
0000
0000
0000
0000
0000
0000
0000
0000
0000
0000
0000
0000
0000
0000
0000
0000
0000
0000
0000
0000
0000
0000
0000
0000
ENDCHAR
STARTCHAR u00A9
ENCODING 169
SWIDTH 1332 0
DWIDTH 16 0
BBX 16 32 0 -8
BITMAP
0000
0000
0000
0000
0000
0000
0FF0
0FF0
300C
300C
C3C3
C3C3
CC33
CC33
CC03
CC03
CC03
CC03
CC33
CC33
C3C3
C3C3
300C
300C
0FF0
0FF0
0000
0000
0000
0000
0000
0000
ENDCHAR
STARTCHAR u00AB
ENCODING 171
SWIDTH 1332 0
DWIDTH 16 0
BBX 16 32 0 -8
BITMAP
0000
0000
0000
0000
0000
0000
0000
0000
0000
0000
0000
0000
0F3C
0F3C
3CF0
3CF0
F3C0
F3C0
3CF0
3CF0
0F3C
0F3C
0000
0000
0000
0000
0000
0000
0000
0000
0000
0000
ENDCHAR
STARTCHAR u201D
ENCODING 8221
SWIDTH 1332 0
DWIDTH 16 0
BBX 16 32 0 -8
BITMAP
0000
0000
FCFC
FCFC
FCFC
FCFC
3C3C
3C3C
F0F0
F0F0
0000
0000
0000
0000
0000
0000
0000
0000
0000
0000
0000
0000
0000
0000
0000
0000
0000
0000
0000
0000
0000
0000
ENDCHAR
STARTCHAR u00C8
ENCODING 200
SWIDTH 1332 0
DWIDTH 16 0
BBX 16 32 0 -8
BITMAP
0FC0
0FC0
00F0
00F0
FFFF
FFFF
3C0F
3C0F
3C03
3C03
3C00
3C00
3C30
3C30
3FF0
3FF0
3C30
3C30
3C00
3C00
3C00
3C00
3C03
3C03
3C0F
3C0F
FFFF
FFFF
0000
0000
0000
0000
ENDCHAR
STARTCHAR u0178
ENCODING 376
SWIDTH 1332 0
DWIDTH 16 0
BBX 16 32 0 -8
BITMAP
3C3C
3C3C
0C30
0C30
F00F
F00F
F00F
F00F
F00F
F00F
F00F
F00F
FC3F
FC3F
3FFC
3FFC
0FF0
0FF0
03C0
03C0
03C0
03C0
03C0
03C0
03C0
03C0
0FF0
0FF0
0000
0000
0000
0000
ENDCHAR
STARTCHAR u007D
ENCODING 125
SWIDTH 1332 0
DWIDTH 16 0
BBX 16 32 0 -8
BITMAP
0000
0000
0000
0000
3F00
3F00
03C0
03C0
03C0
03C0
03C0
03C0
03C0
03C0
03FC
03FC
03FC
03FC
03C0
03C0
03C0
03C0
03C0
03C0
03C0
03C0
3F00
3F00
0000
0000
0000
0000
ENDCHAR
STARTCHAR u250F
ENCODING 9487
SWIDTH 1332 0
DWIDTH 16 0
BBX 16 32 0 -8
BITMAP
0000
0000
0000
0000
0000
0000
0000
0000
0000
0000
0000
0000
3FFF
3FFF
3C00
3C00
3CFF
3CFF
3CF0
3CF0
3CF0
3CF0
3CF0
3CF0
3CF0
3CF0
3CF0
3CF0
3CF0
3CF0
3CF0
3CF0
ENDCHAR
STARTCHAR u002C
ENCODING 44
SWIDTH 1332 0
DWIDTH 16 0
BBX 16 32 0 -8
BITMAP
0000
0000
0000
0000
0000
0000
0000
0000
0000
0000
0000
0000
0000
0000
0000
0000
0000
0000
0000
0000
0000
0000
0000
0000
0FC0
0FC0
0FC0
0FC0
03C0
03C0
0F00
0F00
ENDCHAR
STARTCHAR u0110
ENCODING 272
SWIDTH 1332 0
DWIDTH 16 0
BBX 16 32 0 -8
BITMAP
0000
0000
0000
0000
FFF0
FFF0
3C3C
3C3C
3C0F
3C0F
3C0F
3C0F
3C0F
3C0F
FF0F
FF0F
FF0F
FF0F
3C0F
3C0F
3C0F
3C0F
3C0F
3C0F
3C3C
3C3C
FFF0
FFF0
0000
0000
0000
0000
ENDCHAR
STARTCHAR u005F
ENCODING 95
SWIDTH 1332 0
DWIDTH 16 0
BBX 16 32 0 -8
BITMAP
0000
0000
0000
0000
0000
0000
0000
0000
0000
0000
0000
0000
0000
0000
0000
0000
0000
0000
0000
0000
0000
0000
0000
0000
0000
0000
0000
0000
FFFF
FFFF
0000
0000
ENDCHAR
STARTCHAR u012A
ENCODING 298
SWIDTH 1332 0
DWIDTH 16 0
BBX 16 32 0 -8
BITMAP
3FFC
3FFC
0000
0000
0FF0
0FF0
03C0
03C0
03C0
03C0
03C0
03C0
03C0
03C0
03C0
03C0
03C0
03C0
03C0
03C0
03C0
03C0
03C0
03C0
03C0
03C0
0FF0
0FF0
0000
0000
0000
0000
ENDCHAR
STARTCHAR u00E7
ENCODING 231
SWIDTH 1332 0
DWIDTH 16 0
BBX 16 32 0 -8
BITMAP
0000
0000
0000
0000
0000
0000
0000
0000
0000
0000
0000
0000
3FF0
3FF0
F03C
F03C
F000
F000
F000
F000
F000
F000
F000
F000
F03C
F03C
3FF0
3FF0
00F0
00F0
3FC0
3FC0
ENDCHAR
STARTCHAR u00F3
ENCODING 243
SWIDTH 1332 0
DWIDTH 16 0
BBX 16 32 0 -8
BITMAP
0000
0000
0000
0000
00F0
00F0
03C0
03C0
0F00
0F00
0000
0000
3FF0
3FF0
F03C
F03C
F03C
F03C
F03C
F03C
F03C
F03C
F03C
F03C
F03C
F03C
3FF0
3FF0
0000
0000
0000
0000
ENDCHAR
STARTCHAR u006D
ENCODING 109
SWIDTH 1332 0
DWIDTH 16 0
BBX 16 32 0 -8
BITMAP
0000
0000
0000
0000
0000
0000
0000
0000
0000
0000
0000
0000
FC3C
FC3C
FFFF
FFFF
F3CF
F3CF
F3CF
F3CF
F3CF
F3CF
F00F
F00F
F00F
F00F
F00F
F00F
0000
0000
0000
0000
ENDCHAR
STARTCHAR u212A
ENCODING 8490
SWIDTH 1332 0
DWIDTH 16 0
BBX 16 32 0 -8
BITMAP
0000
0000
0000
0000
FC0F
FC0F
3C0F
3C0F
3C3C
3C3C
3C3C
3C3C
3CF0
3CF0
3FF0
3FF0
3CF0
3CF0
3C3C
3C3C
3C3C
3C3C
3C0F
3C0F
3C0F
3C0F
FC0F
FC0F
0000
0000
0000
0000
ENDCHAR
STARTCHAR u2534
ENCODING 9524
SWIDTH 1332 0
DWIDTH 16 0
BBX 16 32 0 -8
BITMAP
03C0
03C0
03C0
03C0
03C0
03C0
03C0
03C0
03C0
03C0
03C0
03C0
03C0
03C0
FFFF
FFFF
0000
0000
0000
0000
0000
0000
0000
0000
0000
0000
0000
0000
0000
0000
0000
0000
ENDCHAR
STARTCHAR u0157
ENCODING 343
SWIDTH 1332 0
DWIDTH 16 0
BBX 16 32 0 -8
BITMAP
0000
0000
0000
0000
0000
0000
0000
0000
0000
0000
0000
0000
F3FC
F3FC
3F0F
3F0F
3C0F
3C0F
3C00
3C00
3C00
3C00
3C00
3C00
3C00
3C00
FF00
FF00
03C0
03C0
FF00
FF00
ENDCHAR
STARTCHAR u2039
ENCODING 8249
SWIDTH 1332 0
DWIDTH 16 0
BBX 16 32 0 -8
BITMAP
0000
0000
0000
0000
0000
0000
003C
003C
00F0
00F0
03C0
03C0
0F00
0F00
3C00
3C00
3C00
3C00
0F00
0F00
03C0
03C0
00F0
00F0
003C
003C
0000
0000
0000
0000
0000
0000
ENDCHAR
STARTCHAR u004E
ENCODING 78
SWIDTH 1332 0
DWIDTH 16 0
BBX 16 32 0 -8
BITMAP
0000
0000
0000
0000
F03C
F03C
F03C
F03C
FC3C
FC3C
FC3C
FC3C
FF3C
FF3C
FF3C
FF3C
F3FC
F3FC
F3FC
F3FC
F0FC
F0FC
F0FC
F0FC
F03C
F03C
F03C
F03C
0000
0000
0000
0000
ENDCHAR
STARTCHAR u006A
ENCODING 106
SWIDTH 1332 0
DWIDTH 16 0
BBX 16 32 0 -8
BITMAP
0000
0000
0000
0000
0000
0000
00F0
00F0
00F0
00F0
0000
0000
03F0
03F0
00F0
00F0
00F0
00F0
00F0
00F0
00F0
00F0
00F0
00F0
00F0
00F0
F0F0
F0F0
F0F0
F0F0
3FC0
3FC0
ENDCHAR
STARTCHAR u0113
ENCODING 275
SWIDTH 1332 0
DWIDTH 16 0
BBX 16 32 0 -8
BITMAP
0000
0000
0000
0000
0000
0000
0000
0000
3FF0
3FF0
0000
0000
3FF0
3FF0
F03C
F03C
F03C
F03C
FFFC
FFFC
F000
F000
F000
F000
F03C
F03C
3FF0
3FF0
0000
0000
0000
0000
ENDCHAR
STARTCHAR u0041
ENCODING 65
SWIDTH 1332 0
DWIDTH 16 0
BBX 16 32 0 -8
BITMAP
0000
0000
0000
0000
0300
0300
0FC0
0FC0
3FF0
3FF0
FCFC
FCFC
F03C
F03C
F03C
F03C
FFFC
FFFC
F03C
F03C
F03C
F03C
F03C
F03C
F03C
F03C
F03C
F03C
0000
0000
0000
0000
ENDCHAR
STARTCHAR u2014
ENCODING 8212
SWIDTH 1332 0
DWIDTH 16 0
BBX 16 32 0 -8
BITMAP
0000
0000
0000
0000
0000
0000
0000
0000
0000
0000
0000
0000
0000
0000
0000
0000
3FFC
3FFC
3FFC
3FFC
0000
0000
0000
0000
0000
0000
0000
0000
0000
0000
0000
0000
ENDCHAR
STARTCHAR u00C5
ENCODING 197
SWIDTH 1332 0
DWIDTH 16 0
BBX 16 32 0 -8
BITMAP
0FC0
0FC0
3CF0
3CF0
0FC0
0FC0
0000
0000
3FF0
3FF0
FCFC
FCFC
F03C
F03C
F03C
F03C
FFFC
FFFC
F03C
F03C
F03C
F03C
F03C
F03C
F03C
F03C
F03C
F03C
0000
0000
0000
0000
ENDCHAR
STARTCHAR u00CB
ENCODING 203
SWIDTH 1332 0
DWIDTH 16 0
BBX 16 32 0 -8
BITMAP
3C3C
3C3C
0C30
0C30
FFFF
FFFF
3C0F
3C0F
3C03
3C03
3C00
3C00
3C30
3C30
3FF0
3FF0
3C30
3C30
3C00
3C00
3C00
3C00
3C03
3C03
3C0F
3C0F
FFFF
FFFF
0000
0000
0000
0000
ENDCHAR
STARTCHAR u0105
ENCODING 261
SWIDTH 1332 0
DWIDTH 16 0
BBX 16 32 0 -8
BITMAP
0000
0000
0000
0000
0000
0000
0000
0000
0000
0000
0000
0000
3FF0
3FF0
003C
003C
3FFC
3FFC
F03C
F03C
F03C
F03C
F03C
F03C
F03C
F03C
3FCF
3FCF
03C0
03C0
00FF
00FF
ENDCHAR
STARTCHAR u0051
ENCODING 81
SWIDTH 1332 0
DWIDTH 16 0
BBX 16 32 0 -8
BITMAP
0000
0000
0000
0000
0FF0
0FF0
3C3C
3C3C
F00F
F00F
F00F
F00F
F00F
F00F
F00F
F00F
F00F
F00F
F00F
F00F
F0CF
F0CF
F0FF
F0FF
3FFC
3FFC
0FF0
0FF0
003C
003C
003F
003F
ENDCHAR
STARTCHAR u003C
ENCODING 60
SWIDTH 1332 0
DWIDTH 16 0
BBX 16 32 0 -8
BITMAP
0000
0000
0000
0000
0000
0000
003C
003C
00F0
00F0
03C0
03C0
0F00
0F00
3C00
3C00
3C00
3C00
0F00
0F00
03C0
03C0
00F0
00F0
003C
003C
0000
0000
0000
0000
0000
0000
ENDCHAR
STARTCHAR u2592
ENCODING 9618
SWIDTH 1332 0
DWIDTH 16 0
BBX 16 32 0 -8
BITMAP
CCCC
CCCC
3333
3333
CCCC
CCCC
3333
3333
CCCC
CCCC
3333
3333
CCCC
CCCC
3333
3333
CCCC
CCCC
3333
3333
CCCC
CCCC
3333
3333
CCCC
CCCC
3333
3333
CCCC
CCCC
3333
3333
ENDCHAR
STARTCHAR u0056
ENCODING 86
SWIDTH 1332 0
DWIDTH 16 0
BBX 16 32 0 -8
BITMAP
0000
0000
0000
0000
F03C
F03C
F03C
F03C
F03C
F03C
F03C
F03C
F03C
F03C
F03C
F03C
F03C
F03C
F03C
F03C
F03C
F03C
3FF0
3FF0
0FC0
0FC0
0300
0300
0000
0000
0000
0000
ENDCHAR
STARTCHAR u00F7
ENCODING 247
SWIDTH 1332 0
DWIDTH 16 0
BBX 16 32 0 -8
BITMAP
0000
0000
0000
0000
0000
0000
0000
0000
0000
0000
0000
0000
03C0
03C0
03C0
03C0
0000
0000
3FFC
3FFC
0000
0000
03C0
03C0
03C0
03C0
0000
0000
0000
0000
0000
0000
ENDCHAR
STARTCHAR u0173
ENCODING 371
SWIDTH 1332 0
DWIDTH 16 0
BBX 16 32 0 -8
BITMAP
0000
0000
0000
0000
0000
0000
0000
0000
0000
0000
0000
0000
F03C
F03C
F03C
F03C
F03C
F03C
F03C
F03C
F03C
F03C
F03C
F03C
F03C
F03C
3FCF
3FCF
3C00
3C00
0FF0
0FF0
ENDCHAR
STARTCHAR u2018
ENCODING 8216
SWIDTH 1332 0
DWIDTH 16 0
BBX 16 32 0 -8
BITMAP
0000
0000
0FC0
0FC0
0FC0
0FC0
0F00
0F00
03C0
03C0
0000
0000
0000
0000
0000
0000
0000
0000
0000
0000
0000
0000
0000
0000
0000
0000
0000
0000
0000
0000
0000
0000
ENDCHAR
STARTCHAR u00CC
ENCODING 204
SWIDTH 1332 0
DWIDTH 16 0
BBX 16 32 0 -8
BITMAP
0F00
0F00
03C0
03C0
0030
0030
0FF0
0FF0
03C0
03C0
03C0
03C0
03C0
03C0
03C0
03C0
03C0
03C0
03C0
03C0
03C0
03C0
03C0
03C0
03C0
03C0
0FF0
0FF0
0000
0000
0000
0000
ENDCHAR
STARTCHAR u2015
ENCODING 8213
SWIDTH 1332 0
DWIDTH 16 0
BBX 16 32 0 -8
BITMAP
0000
0000
0000
0000
0000
0000
0000
0000
0000
0000
0000
0000
0000
0000
0000
0000
3FFC
3FFC
3FFC
3FFC
0000
0000
0000
0000
0000
0000
0000
0000
0000
0000
0000
0000
ENDCHAR
STARTCHAR u00A5
ENCODING 165
SWIDTH 1332 0
DWIDTH 16 0
BBX 16 32 0 -8
BITMAP
0000
0000
0000
0000
3C3C
3C3C
3C3C
3C3C
3C3C
3C3C
3C3C
3C3C
0FF0
0FF0
03C0
03C0
3FFC
3FFC
03C0
03C0
3FFC
3FFC
03C0
03C0
03C0
03C0
0FF0
0FF0
0000
0000
0000
0000
ENDCHAR
STARTCHAR u252B
ENCODING 9515
SWIDTH 1332 0
DWIDTH 16 0
BBX 16 32 0 -8
BITMAP
3CF0
3CF0
3CF0
3CF0
3CF0
3CF0
3CF0
3CF0
3CF0
3CF0
3CF0
3CF0
FCF0
FCF0
00F0
00F0
FCF0
FCF0
3CF0
3CF0
3CF0
3CF0
3CF0
3CF0
3CF0
3CF0
3CF0
3CF0
3CF0
3CF0
3CF0
3CF0
ENDCHAR
STARTCHAR u02D9
ENCODING 729
SWIDTH 1332 0
DWIDTH 16 0
BBX 16 32 0 -8
BITMAP
0000
0000
03C0
03C0
03C0
03C0
0000
0000
0000
0000
0000
0000
0000
0000
0000
0000
0000
0000
0000
0000
0000
0000
0000
0000
0000
0000
0000
0000
0000
0000
0000
0000
ENDCHAR
STARTCHAR u0052
ENCODING 82
SWIDTH 1332 0
DWIDTH 16 0
BBX 16 32 0 -8
BITMAP
0000
0000
0000
0000
FFFC
FFFC
3C0F
3C0F
3C0F
3C0F
3C0F
3C0F
3C0F
3C0F
3FFC
3FFC
3CF0
3CF0
3C3C
3C3C
3C3C
3C3C
3C3C
3C3C
3C3C
3C3C
FF3F
FF3F
0000
0000
0000
0000
ENDCHAR
STARTCHAR u006E
ENCODING 110
SWIDTH 1332 0
DWIDTH 16 0
BBX 16 32 0 -8
BITMAP
0000
0000
0000
0000
0000
0000
0000
0000
0000
0000
0000
0000
F3F0
F3F0
3C3C
3C3C
3C3C
3C3C
3C3C
3C3C
3C3C
3C3C
3C3C
3C3C
3C3C
3C3C
3C3C
3C3C
0000
0000
0000
0000
ENDCHAR
STARTCHAR u014D
ENCODING 333
SWIDTH 1332 0
DWIDTH 16 0
BBX 16 32 0 -8
BITMAP
0000
0000
0000
0000
0000
0000
0000
0000
3FF0
3FF0
0000
0000
3FF0
3FF0
F03C
F03C
F03C
F03C
F03C
F03C
F03C
F03C
F03C
F03C
F03C
F03C
3FF0
3FF0
0000
0000
0000
0000
ENDCHAR
STARTCHAR u0153
ENCODING 339
SWIDTH 1332 0
DWIDTH 16 0
BBX 16 32 0 -8
BITMAP
0000
0000
0000
0000
0000
0000
0000
0000
0000
0000
0000
0000
3CFC
3CFC
F3CF
F3CF
F3CF
F3CF
F3CF
F3CF
F3FF
F3FF
F3C0
F3C0
F3CF
F3CF
3CFC
3CFC
0000
0000
0000
0000
ENDCHAR
STARTCHAR u00E4
ENCODING 228
SWIDTH 1332 0
DWIDTH 16 0
BBX 16 32 0 -8
BITMAP
0000
0000
0000
0000
0000
0000
3CF0
3CF0
3CF0
3CF0
0000
0000
3FF0
3FF0
003C
003C
3FFC
3FFC
F03C
F03C
F03C
F03C
F03C
F03C
F03C
F03C
3FCF
3FCF
0000
0000
0000
0000
ENDCHAR
STARTCHAR u010C
ENCODING 268
SWIDTH 1332 0
DWIDTH 16 0
BBX 16 32 0 -8
BITMAP
3C3C
3C3C
0FF0
0FF0
0FF0
0FF0
3C3C
3C3C
F00F
F00F
F00F
F00F
F000
F000
F000
F000
F000
F000
F000
F000
F00F
F00F
F00F
F00F
3C3C
3C3C
0FF0
0FF0
0000
0000
0000
0000
ENDCHAR
STARTCHAR u0045
ENCODING 69
SWIDTH 1332 0
DWIDTH 16 0
BBX 16 32 0 -8
BITMAP
0000
0000
0000
0000
FFFF
FFFF
3C0F
3C0F
3C03
3C03
3C00
3C00
3C30
3C30
3FF0
3FF0
3C30
3C30
3C00
3C00
3C00
3C00
3C03
3C03
3C0F
3C0F
FFFF
FFFF
0000
0000
0000
0000
ENDCHAR
STARTCHAR u0070
ENCODING 112
SWIDTH 1332 0
DWIDTH 16 0
BBX 16 32 0 -8
BITMAP
0000
0000
0000
0000
0000
0000
0000
0000
0000
0000
0000
0000
F3FC
F3FC
3C0F
3C0F
3C0F
3C0F
3C0F
3C0F
3C0F
3C0F
3C0F
3C0F
3C0F
3C0F
3FFC
3FFC
3C00
3C00
FF00
FF00
ENDCHAR
STARTCHAR u00E0
ENCODING 224
SWIDTH 1332 0
DWIDTH 16 0
BBX 16 32 0 -8
BITMAP
0000
0000
0000
0000
0F00
0F00
03C0
03C0
00F0
00F0
0000
0000
3FF0
3FF0
003C
003C
3FFC
3FFC
F03C
F03C
F03C
F03C
F03C
F03C
F03C
F03C
3FCF
3FCF
0000
0000
0000
0000
ENDCHAR
STARTCHAR u00BB
ENCODING 187
SWIDTH 1332 0
DWIDTH 16 0
BBX 16 32 0 -8
BITMAP
0000
0000
0000
0000
0000
0000
0000
0000
0000
0000
0000
0000
F3C0
F3C0
3CF0
3CF0
0F3C
0F3C
3CF0
3CF0
F3C0
F3C0
0000
0000
0000
0000
0000
0000
0000
0000
0000
0000
ENDCHAR
STARTCHAR u00DF
ENCODING 223
SWIDTH 1332 0
DWIDTH 16 0
BBX 16 32 0 -8
BITMAP
0000
0000
0000
0000
3FF0
3FF0
F03C
F03C
F03C
F03C
F03C
F03C
F3F0
F3F0
F03C
F03C
F00F
F00F
F00F
F00F
F00F
F00F
F00F
F00F
F03C
F03C
F0F0
F0F0
F000
F000
0000
0000
ENDCHAR
STARTCHAR u004F
ENCODING 79
SWIDTH 1332 0
DWIDTH 16 0
BBX 16 32 0 -8
BITMAP
0000
0000
0000
0000
0FF0
0FF0
3C3C
3C3C
F00F
F00F
F00F
F00F
F00F
F00F
F00F
F00F
F00F
F00F
F00F
F00F
F00F
F00F
F00F
F00F
3C3C
3C3C
0FF0
0FF0
0000
0000
0000
0000
ENDCHAR
STARTCHAR u0079
ENCODING 121
SWIDTH 1332 0
DWIDTH 16 0
BBX 16 32 0 -8
BITMAP
0000
0000
0000
0000
0000
0000
0000
0000
0000
0000
0000
0000
F00F
F00F
F00F
F00F
3C3C
3C3C
3C3C
3C3C
0FF0
0FF0
03C0
03C0
03C0
03C0
0F00
0F00
0F00
0F00
FC00
FC00
ENDCHAR
STARTCHAR u212B
ENCODING 8491
SWIDTH 1332 0
DWIDTH 16 0
BBX 16 32 0 -8
BITMAP
0FC0
0FC0
3CF0
3CF0
0FC0
0FC0
0000
0000
3FF0
3FF0
FCFC
FCFC
F03C
F03C
F03C
F03C
FFFC
FFFC
F03C
F03C
F03C
F03C
F03C
F03C
F03C
F03C
F03C
F03C
0000
0000
0000
0000
ENDCHAR
STARTCHAR u00D4
ENCODING 212
SWIDTH 1332 0
DWIDTH 16 0
BBX 16 32 0 -8
BITMAP
0FF0
0FF0
3C3C
3C3C
0000
0000
0FF0
0FF0
3C3C
3C3C
F00F
F00F
F00F
F00F
F00F
F00F
F00F
F00F
F00F
F00F
F00F
F00F
F00F
F00F
3C3C
3C3C
0FF0
0FF0
0000
0000
0000
0000
ENDCHAR
STARTCHAR u2518
ENCODING 9496
SWIDTH 1332 0
DWIDTH 16 0
BBX 16 32 0 -8
BITMAP
03C0
03C0
03C0
03C0
03C0
03C0
03C0
03C0
03C0
03C0
03C0
03C0
03C0
03C0
FFC0
FFC0
0000
0000
0000
0000
0000
0000
0000
0000
0000
0000
0000
0000
0000
0000
0000
0000
ENDCHAR
STARTCHAR u251B
ENCODING 9499
SWIDTH 1332 0
DWIDTH 16 0
BBX 16 32 0 -8
BITMAP
3CF0
3CF0
3CF0
3CF0
3CF0
3CF0
3CF0
3CF0
3CF0
3CF0
3CF0
3CF0
FCF0
FCF0
00F0
00F0
FFF0
FFF0
0000
0000
0000
0000
0000
0000
0000
0000
0000
0000
0000
0000
0000
0000
ENDCHAR
STARTCHAR u0160
ENCODING 352
SWIDTH 1332 0
DWIDTH 16 0
BBX 16 32 0 -8
BITMAP
3C3C
3C3C
0FF0
0FF0
3FFC
3FFC
F00F
F00F
F03F
F03F
F000
F000
3C00
3C00
0FF0
0FF0
003C
003C
000F
000F
FC0F
FC0F
FC0F
FC0F
F00F
F00F
3FFC
3FFC
0000
0000
0000
0000
ENDCHAR
STARTCHAR u2588
ENCODING 9608
SWIDTH 1332 0
DWIDTH 16 0
BBX 16 32 0 -8
BITMAP
FFFF
FFFF
FFFF
FFFF
FFFF
FFFF
FFFF
FFFF
FFFF
FFFF
FFFF
FFFF
FFFF
FFFF
FFFF
FFFF
FFFF
FFFF
FFFF
FFFF
FFFF
FFFF
FFFF
FFFF
FFFF
FFFF
FFFF
FFFF
FFFF
FFFF
FFFF
FFFF
ENDCHAR
STARTCHAR u256C
ENCODING 9580
SWIDTH 1332 0
DWIDTH 16 0
BBX 16 32 0 -8
BITMAP
3CF0
3CF0
3CF0
3CF0
3CF0
3CF0
3CF0
3CF0
3CF0
3CF0
3CF0
3CF0
FCFF
FCFF
0000
0000
FCFF
FCFF
3CF0
3CF0
3CF0
3CF0
3CF0
3CF0
3CF0
3CF0
3CF0
3CF0
3CF0
3CF0
3CF0
3CF0
ENDCHAR
STARTCHAR u007E
ENCODING 126
SWIDTH 1332 0
DWIDTH 16 0
BBX 16 32 0 -8
BITMAP
0000
0000
0000
0000
3F3C
3F3C
F3F0
F3F0
0000
0000
0000
0000
0000
0000
0000
0000
0000
0000
0000
0000
0000
0000
0000
0000
0000
0000
0000
0000
0000
0000
0000
0000
ENDCHAR
STARTCHAR u00EE
ENCODING 238
SWIDTH 1332 0
DWIDTH 16 0
BBX 16 32 0 -8
BITMAP
0000
0000
0000
0000
0300
0300
0FC0
0FC0
3CF0
3CF0
0000
0000
0FC0
0FC0
03C0
03C0
03C0
03C0
03C0
03C0
03C0
03C0
03C0
03C0
03C0
03C0
0FF0
0FF0
0000
0000
0000
0000
ENDCHAR
STARTCHAR u2563
ENCODING 9571
SWIDTH 1332 0
DWIDTH 16 0
BBX 16 32 0 -8
BITMAP
3CF0
3CF0
3CF0
3CF0
3CF0
3CF0
3CF0
3CF0
3CF0
3CF0
3CF0
3CF0
FCF0
FCF0
00F0
00F0
FCF0
FCF0
3CF0
3CF0
3CF0
3CF0
3CF0
3CF0
3CF0
3CF0
3CF0
3CF0
3CF0
3CF0
3CF0
3CF0
ENDCHAR
STARTCHAR u00FB
ENCODING 251
SWIDTH 1332 0
DWIDTH 16 0
BBX 16 32 0 -8
BITMAP
0000
0000
0000
0000
0300
0300
0FC0
0FC0
3CF0
3CF0
0000
0000
F03C
F03C
F03C
F03C
F03C
F03C
F03C
F03C
F03C
F03C
F03C
F03C
F03C
F03C
3FCF
3FCF
0000
0000
0000
0000
ENDCHAR
STARTCHAR u00FD
ENCODING 253
SWIDTH 1332 0
DWIDTH 16 0
BBX 16 32 0 -8
BITMAP
0000
0000
0000
0000
00F0
00F0
03C0
03C0
0F00
0F00
0000
0000
F00F
F00F
F00F
F00F
3C3C
3C3C
3C3C
3C3C
0FF0
0FF0
03C0
03C0
03C0
03C0
0F00
0F00
0F00
0F00
FC00
FC00
ENDCHAR
STARTCHAR u0117
ENCODING 279
SWIDTH 1332 0
DWIDTH 16 0
BBX 16 32 0 -8
BITMAP
0000
0000
0000
0000
0300
0300
0FC0
0FC0
0300
0300
0000
0000
3FF0
3FF0
F03C
F03C
F03C
F03C
FFFC
FFFC
F000
F000
F000
F000
F03C
F03C
3FF0
3FF0
0000
0000
0000
0000
ENDCHAR
STARTCHAR u00B0
ENCODING 176
SWIDTH 1332 0
DWIDTH 16 0
BBX 16 32 0 -8
BITMAP
0000
0000
0FC0
0FC0
3CF0
3CF0
3CF0
3CF0
0FC0
0FC0
0000
0000
0000
0000
0000
0000
0000
0000
0000
0000
0000
0000
0000
0000
0000
0000
0000
0000
0000
0000
0000
0000
ENDCHAR
STARTCHAR u2550
ENCODING 9552
SWIDTH 1332 0
DWIDTH 16 0
BBX 16 32 0 -8
BITMAP
0000
0000
0000
0000
0000
0000
0000
0000
0000
0000
0000
0000
FFFF
FFFF
0000
0000
FFFF
FFFF
0000
0000
0000
0000
0000
0000
0000
0000
0000
0000
0000
0000
0000
0000
ENDCHAR
STARTCHAR u00D1
ENCODING 209
SWIDTH 1332 0
DWIDTH 16 0
BBX 16 32 0 -8
BITMAP
3F3C
3F3C
F3F0
F3F0
0000
0000
F03C
F03C
FC3C
FC3C
FC3C
FC3C
FF3C
FF3C
FF3C
FF3C
F3FC
F3FC
F3FC
F3FC
F0FC
F0FC
F0FC
F0FC
F03C
F03C
F03C
F03C
0000
0000
0000
0000
ENDCHAR
STARTCHAR u0100
ENCODING 256
SWIDTH 1332 0
DWIDTH 16 0
BBX 16 32 0 -8
BITMAP
0000
0000
3FF0
3FF0
0300
0300
0FC0
0FC0
3FF0
3FF0
FCFC
FCFC
F03C
F03C
F03C
F03C
FFFC
FFFC
F03C
F03C
F03C
F03C
F03C
F03C
F03C
F03C
F03C
F03C
0000
0000
0000
0000
ENDCHAR
STARTCHAR u00D8
ENCODING 216
SWIDTH 1332 0
DWIDTH 16 0
BBX 16 32 0 -8
BITMAP
0000
0000
0003
0003
0FF3
0FF3
3C3C
3C3C
F03F
F03F
F0CF
F0CF
F0CF
F0CF
F3CF
F3CF
F3CF
F3CF
F3CF
F3CF
F30F
F30F
F30F
F30F
3C3C
3C3C
CFF0
CFF0
C000
C000
0000
0000
ENDCHAR
STARTCHAR u0075
ENCODING 117
SWIDTH 1332 0
DWIDTH 16 0
BBX 16 32 0 -8
BITMAP
0000
0000
0000
0000
0000
0000
0000
0000
0000
0000
0000
0000
F03C
F03C
F03C
F03C
F03C
F03C
F03C
F03C
F03C
F03C
F03C
F03C
F03C
F03C
3FCF
3FCF
0000
0000
0000
0000
ENDCHAR
STARTCHAR u2019
ENCODING 8217
SWIDTH 1332 0
DWIDTH 16 0
BBX 16 32 0 -8
BITMAP
0000
0000
0FC0
0FC0
0FC0
0FC0
03C0
03C0
0F00
0F00
0000
0000
0000
0000
0000
0000
0000
0000
0000
0000
0000
0000
0000
0000
0000
0000
0000
0000
0000
0000
0000
0000
ENDCHAR
STARTCHAR u0021
ENCODING 33
SWIDTH 1332 0
DWIDTH 16 0
BBX 16 32 0 -8
BITMAP
0000
0000
0000
0000
03C0
03C0
0FF0
0FF0
0FF0
0FF0
0FF0
0FF0
0FF0
0FF0
03C0
03C0
03C0
03C0
03C0
03C0
03C0
03C0
0000
0000
03C0
03C0
03C0
03C0
0000
0000
0000
0000
ENDCHAR
STARTCHAR u003F
ENCODING 63
SWIDTH 1332 0
DWIDTH 16 0
BBX 16 32 0 -8
BITMAP
0000
0000
0000
0000
0FF0
0FF0
3C3C
3C3C
F00F
F00F
F00F
F00F
000F
000F
003C
003C
00F0
00F0
03C0
03C0
03C0
03C0
0000
0000
03C0
03C0
03C0
03C0
0000
0000
0000
0000
ENDCHAR
STARTCHAR u2517
ENCODING 9495
SWIDTH 1332 0
DWIDTH 16 0
BBX 16 32 0 -8
BITMAP
3CF0
3CF0
3CF0
3CF0
3CF0
3CF0
3CF0
3CF0
3CF0
3CF0
3CF0
3CF0
3CFF
3CFF
3C00
3C00
3FFF
3FFF
0000
0000
0000
0000
0000
0000
0000
0000
0000
0000
0000
0000
0000
0000
ENDCHAR
STARTCHAR u00E3
ENCODING 227
SWIDTH 1332 0
DWIDTH 16 0
BBX 16 32 0 -8
BITMAP
0000
0000
0000
0000
0000
0000
3F3C
3F3C
F3F0
F3F0
0000
0000
3FF0
3FF0
003C
003C
3FFC
3FFC
F03C
F03C
F03C
F03C
F03C
F03C
F03C
F03C
3FCF
3FCF
0000
0000
0000
0000
ENDCHAR
STARTCHAR u0050
ENCODING 80
SWIDTH 1332 0
DWIDTH 16 0
BBX 16 32 0 -8
BITMAP
0000
0000
0000
0000
FFFC
FFFC
3C0F
3C0F
3C0F
3C0F
3C0F
3C0F
3C0F
3C0F
3C0F
3C0F
3FFC
3FFC
3C00
3C00
3C00
3C00
3C00
3C00
3C00
3C00
FF00
FF00
0000
0000
0000
0000
ENDCHAR
STARTCHAR u0063
ENCODING 99
SWIDTH 1332 0
DWIDTH 16 0
BBX 16 32 0 -8
BITMAP
0000
0000
0000
0000
0000
0000
0000
0000
0000
0000
0000
0000
3FF0
3FF0
F03C
F03C
F000
F000
F000
F000
F000
F000
F000
F000
F03C
F03C
3FF0
3FF0
0000
0000
0000
0000
ENDCHAR
STARTCHAR u0048
ENCODING 72
SWIDTH 1332 0
DWIDTH 16 0
BBX 16 32 0 -8
BITMAP
0000
0000
0000
0000
F03C
F03C
F03C
F03C
F03C
F03C
F03C
F03C
F03C
F03C
FFFC
FFFC
F03C
F03C
F03C
F03C
F03C
F03C
F03C
F03C
F03C
F03C
F03C
F03C
0000
0000
0000
0000
ENDCHAR
STARTCHAR u00FF
ENCODING 255
SWIDTH 1332 0
DWIDTH 16 0
BBX 16 32 0 -8
BITMAP
0000
0000
0000
0000
0000
0000
3C3C
3C3C
3C3C
3C3C
0000
0000
F00F
F00F
F00F
F00F
3C3C
3C3C
3C3C
3C3C
0FF0
0FF0
03C0
03C0
03C0
03C0
0F00
0F00
0F00
0F00
FC00
FC00
ENDCHAR
STARTCHAR u0129
ENCODING 297
SWIDTH 1332 0
DWIDTH 16 0
BBX 16 32 0 -8
BITMAP
0000
0000
0000
0000
0000
0000
3F3C
3F3C
F3F0
F3F0
0000
0000
0FC0
0FC0
03C0
03C0
03C0
03C0
03C0
03C0
03C0
03C0
03C0
03C0
03C0
03C0
0FF0
0FF0
0000
0000
0000
0000
ENDCHAR
STARTCHAR u0167
ENCODING 359
SWIDTH 1332 0
DWIDTH 16 0
BBX 16 32 0 -8
BITMAP
0000
0000
0000
0000
0000
0000
0F00
0F00
0F00
0F00
0F00
0F00
FFF0
FFF0
0F00
0F00
0FF0
0FF0
3FC0
3FC0
FF00
FF00
0F00
0F00
0F3C
0F3C
03F0
03F0
0000
0000
0000
0000
ENDCHAR
STARTCHAR u2569
ENCODING 9577
SWIDTH 1332 0
DWIDTH 16 0
BBX 16 32 0 -8
BITMAP
3CF0
3CF0
3CF0
3CF0
3CF0
3CF0
3CF0
3CF0
3CF0
3CF0
3CF0
3CF0
FCFF
FCFF
0000
0000
FFFF
FFFF
0000
0000
0000
0000
0000
0000
0000
0000
0000
0000
0000
0000
0000
0000
ENDCHAR
STARTCHAR u006C
ENCODING 108
SWIDTH 1332 0
DWIDTH 16 0
BBX 16 32 0 -8
BITMAP
0000
0000
0000
0000
0FC0
0FC0
03C0
03C0
03C0
03C0
03C0
03C0
03C0
03C0
03C0
03C0
03C0
03C0
03C0
03C0
03C0
03C0
03C0
03C0
03C0
03C0
0FF0
0FF0
0000
0000
0000
0000
ENDCHAR
STARTCHAR u005C
ENCODING 92
SWIDTH 1332 0
DWIDTH 16 0
BBX 16 32 0 -8
BITMAP
0000
0000
0000
0000
F000
F000
F000
F000
3C00
3C00
3C00
3C00
0F00
0F00
0F00
0F00
03C0
03C0
03C0
03C0
00F0
00F0
00F0
00F0
003C
003C
003C
003C
0000
0000
0000
0000
ENDCHAR
STARTCHAR u255A
ENCODING 9562
SWIDTH 1332 0
DWIDTH 16 0
BBX 16 32 0 -8
BITMAP
3CF0
3CF0
3CF0
3CF0
3CF0
3CF0
3CF0
3CF0
3CF0
3CF0
3CF0
3CF0
3CFF
3CFF
3C00
3C00
3FFF
3FFF
0000
0000
0000
0000
0000
0000
0000
0000
0000
0000
0000
0000
0000
0000
ENDCHAR
STARTCHAR u00E8
ENCODING 232
SWIDTH 1332 0
DWIDTH 16 0
BBX 16 32 0 -8
BITMAP
0000
0000
0000
0000
0F00
0F00
03C0
03C0
00F0
00F0
0000
0000
3FF0
3FF0
F03C
F03C
F03C
F03C
FFFC
FFFC
F000
F000
F000
F000
F03C
F03C
3FF0
3FF0
0000
0000
0000
0000
ENDCHAR
STARTCHAR u2013
ENCODING 8211
SWIDTH 1332 0
DWIDTH 16 0
BBX 16 32 0 -8
BITMAP
0000
0000
0000
0000
0000
0000
0000
0000
0000
0000
0000
0000
0000
0000
0000
0000
0000
0000
3FF0
3FF0
3FF0
3FF0
0000
0000
0000
0000
0000
0000
0000
0000
0000
0000
ENDCHAR
STARTCHAR u00E1
ENCODING 225
SWIDTH 1332 0
DWIDTH 16 0
BBX 16 32 0 -8
BITMAP
0000
0000
0000
0000
00F0
00F0
03C0
03C0
0F00
0F00
0000
0000
3FF0
3FF0
003C
003C
3FFC
3FFC
F03C
F03C
F03C
F03C
F03C
F03C
F03C
F03C
3FCF
3FCF
0000
0000
0000
0000
ENDCHAR
STARTCHAR u014A
ENCODING 330
SWIDTH 1332 0
DWIDTH 16 0
BBX 16 32 0 -8
BITMAP
0000
0000
0000
0000
F3F0
F3F0
FFFC
FFFC
FC3C
FC3C
F03C
F03C
F03C
F03C
F03C
F03C
F03C
F03C
F03C
F03C
F03C
F03C
F03C
F03C
F03C
F03C
F3F0
F3F0
0000
0000
0000
0000
ENDCHAR
STARTCHAR u00CF
ENCODING 207
SWIDTH 1332 0
DWIDTH 16 0
BBX 16 32 0 -8
BITMAP
3C3C
3C3C
3C3C
3C3C
0000
0000
0FF0
0FF0
03C0
03C0
03C0
03C0
03C0
03C0
03C0
03C0
03C0
03C0
03C0
03C0
03C0
03C0
03C0
03C0
03C0
03C0
0FF0
0FF0
0000
0000
0000
0000
ENDCHAR
STARTCHAR u00A7
ENCODING 167
SWIDTH 1332 0
DWIDTH 16 0
BBX 16 32 0 -8
BITMAP
0000
0000
0000
0000
3FF0
3FF0
F03C
F03C
3C00
3C00
0FC0
0FC0
3CF0
3CF0
F03C
F03C
F03C
F03C
3CF0
3CF0
0FC0
0FC0
00F0
00F0
F03C
F03C
3FF0
3FF0
0000
0000
0000
0000
ENDCHAR
STARTCHAR u0030
ENCODING 48
SWIDTH 1332 0
DWIDTH 16 0
BBX 16 32 0 -8
BITMAP
0000
0000
0000
0000
3FF0
3FF0
F03C
F03C
F0FC
F0FC
F0FC
F0FC
F33C
F33C
F33C
F33C
F33C
F33C
F33C
F33C
FC3C
FC3C
FC3C
FC3C
F03C
F03C
3FF0
3FF0
0000
0000
0000
0000
ENDCHAR
STARTCHAR u0168
ENCODING 360
SWIDTH 1332 0
DWIDTH 16 0
BBX 16 32 0 -8
BITMAP
3F3C
3F3C
F3F0
F3F0
0000
0000
F03C
F03C
F03C
F03C
F03C
F03C
F03C
F03C
F03C
F03C
F03C
F03C
F03C
F03C
F03C
F03C
F03C
F03C
F03C
F03C
3FF0
3FF0
0000
0000
0000
0000
ENDCHAR
STARTCHAR uFFFD
ENCODING 65533
SWIDTH 1332 0
DWIDTH 16 0
BBX 16 32 0 -8
BITMAP
0000
0000
0000
0000
3FFC
3FFC
F00F
F00F
C3C3
C3C3
C3C3
C3C3
C3C3
C3C3
FFC3
FFC3
FF0F
FF0F
FC3F
FC3F
FC3F
FC3F
FFFF
FFFF
FC3F
FC3F
FC3F
FC3F
3FFC
3FFC
0000
0000
ENDCHAR
STARTCHAR u0122
ENCODING 290
SWIDTH 1332 0
DWIDTH 16 0
BBX 16 32 0 -8
BITMAP
0000
0000
0000
0000
0FF0
0FF0
3C3C
3C3C
F00F
F00F
F00F
F00F
F000
F000
F000
F000
F0FF
F0FF
F00F
F00F
F00F
F00F
F00F
F00F
3C3C
3C3C
0FF0
0FF0
00F0
00F0
3FC0
3FC0
ENDCHAR
STARTCHAR u007B
ENCODING 123
SWIDTH 1332 0
DWIDTH 16 0
BBX 16 32 0 -8
BITMAP
0000
0000
0000
0000
00FC
00FC
03C0
03C0
03C0
03C0
03C0
03C0
03C0
03C0
3F00
3F00
3F00
3F00
03C0
03C0
03C0
03C0
03C0
03C0
03C0
03C0
00FC
00FC
0000
0000
0000
0000
ENDCHAR
STARTCHAR u0032
ENCODING 50
SWIDTH 1332 0
DWIDTH 16 0
BBX 16 32 0 -8
BITMAP
0000
0000
0000
0000
0FF0
0FF0
3C3C
3C3C
F00F
F00F
F00F
F00F
000F
000F
003C
003C
00F0
00F0
03C0
03C0
0F00
0F00
3C00
3C00
F00F
F00F
FFFF
FFFF
0000
0000
0000
0000
ENDCHAR
STARTCHAR u00D2
ENCODING 210
SWIDTH 1332 0
DWIDTH 16 0
BBX 16 32 0 -8
BITMAP
0F00
0F00
03C0
03C0
0030
0030
0FF0
0FF0
3C3C
3C3C
F00F
F00F
F00F
F00F
F00F
F00F
F00F
F00F
F00F
F00F
F00F
F00F
F00F
F00F
3C3C
3C3C
0FF0
0FF0
0000
0000
0000
0000
ENDCHAR
STARTCHAR u254B
ENCODING 9547
SWIDTH 1332 0
DWIDTH 16 0
BBX 16 32 0 -8
BITMAP
3CF0
3CF0
3CF0
3CF0
3CF0
3CF0
3CF0
3CF0
3CF0
3CF0
3CF0
3CF0
FCFF
FCFF
0000
0000
FCFF
FCFF
3CF0
3CF0
3CF0
3CF0
3CF0
3CF0
3CF0
3CF0
3CF0
3CF0
3CF0
3CF0
3CF0
3CF0
ENDCHAR
STARTCHAR u2566
ENCODING 9574
SWIDTH 1332 0
DWIDTH 16 0
BBX 16 32 0 -8
BITMAP
0000
0000
0000
0000
0000
0000
0000
0000
0000
0000
0000
0000
FFFF
FFFF
0000
0000
FCFF
FCFF
3CF0
3CF0
3CF0
3CF0
3CF0
3CF0
3CF0
3CF0
3CF0
3CF0
3CF0
3CF0
3CF0
3CF0
ENDCHAR
STARTCHAR u00AD
ENCODING 173
SWIDTH 1332 0
DWIDTH 16 0
BBX 16 32 0 -8
BITMAP
0000
0000
0000
0000
0000
0000
0000
0000
0000
0000
0000
0000
0000
0000
0000
0000
0000
0000
3FF0
3FF0
3FF0
3FF0
0000
0000
0000
0000
0000
0000
0000
0000
0000
0000
ENDCHAR
STARTCHAR u0038
ENCODING 56
SWIDTH 1332 0
DWIDTH 16 0
BBX 16 32 0 -8
BITMAP
0000
0000
0000
0000
0FF0
0FF0
3C3C
3C3C
F00F
F00F
F00F
F00F
3C3C
3C3C
0FF0
0FF0
3C3C
3C3C
F00F
F00F
F00F
F00F
F00F
F00F
3C3C
3C3C
0FF0
0FF0
0000
0000
0000
0000
ENDCHAR
STARTCHAR u0042
ENCODING 66
SWIDTH 1332 0
DWIDTH 16 0
BBX 16 32 0 -8
BITMAP
0000
0000
0000
0000
FFFC
FFFC
3C0F
3C0F
3C0F
3C0F
3C0F
3C0F
3C0F
3C0F
3FFC
3FFC
3C0F
3C0F
3C0F
3C0F
3C0F
3C0F
3C0F
3C0F
3C0F
3C0F
FFFC
FFFC
0000
0000
0000
0000
ENDCHAR
STARTCHAR u0036
ENCODING 54
SWIDTH 1332 0
DWIDTH 16 0
BBX 16 32 0 -8
BITMAP
0000
0000
0000
0000
0FF0
0FF0
3C3C
3C3C
F03C
F03C
F000
F000
FFF0
FFF0
FC3C
FC3C
F00F
F00F
F00F
F00F
F00F
F00F
F00F
F00F
3C3C
3C3C
0FF0
0FF0
0000
0000
0000
0000
ENDCHAR
STARTCHAR u0112
ENCODING 274
SWIDTH 1332 0
DWIDTH 16 0
BBX 16 32 0 -8
BITMAP
3FFC
3FFC
0000
0000
FFFF
FFFF
3C0F
3C0F
3C03
3C03
3C00
3C00
3C30
3C30
3FF0
3FF0
3C30
3C30
3C00
3C00
3C00
3C00
3C03
3C03
3C0F
3C0F
FFFF
FFFF
0000
0000
0000
0000
ENDCHAR
STARTCHAR u0046
ENCODING 70
SWIDTH 1332 0
DWIDTH 16 0
BBX 16 32 0 -8
BITMAP
0000
0000
0000
0000
FFFF
FFFF
3C0F
3C0F
3C03
3C03
3C00
3C00
3C30
3C30
3FF0
3FF0
3C30
3C30
3C00
3C00
3C00
3C00
3C00
3C00
3C00
3C00
FFC0
FFC0
0000
0000
0000
0000
ENDCHAR
STARTCHAR u00A6
ENCODING 166
SWIDTH 1332 0
DWIDTH 16 0
BBX 16 32 0 -8
BITMAP
0000
0000
0000
0000
03C0
03C0
03C0
03C0
03C0
03C0
03C0
03C0
03C0
03C0
03C0
03C0
03C0
03C0
03C0
03C0
03C0
03C0
03C0
03C0
03C0
03C0
03C0
03C0
0000
0000
0000
0000
ENDCHAR
STARTCHAR u0161
ENCODING 353
SWIDTH 1332 0
DWIDTH 16 0
BBX 16 32 0 -8
BITMAP
0000
0000
0000
0000
0000
0000
3CF0
3CF0
0FC0
0FC0
0000
0000
3FF0
3FF0
F03C
F03C
F000
F000
3F00
3F00
03F0
03F0
003C
003C
F03C
F03C
3FF0
3FF0
0000
0000
0000
0000
ENDCHAR
STARTCHAR u0058
ENCODING 88
SWIDTH 1332 0
DWIDTH 16 0
BBX 16 32 0 -8
BITMAP
0000
0000
0000
0000
F03C
F03C
F03C
F03C
3CF0
3CF0
3CF0
3CF0
0FC0
0FC0
0FC0
0FC0
0FC0
0FC0
0FC0
0FC0
3CF0
3CF0
3CF0
3CF0
F03C
F03C
F03C
F03C
0000
0000
0000
0000
ENDCHAR
STARTCHAR u2557
ENCODING 9559
SWIDTH 1332 0
DWIDTH 16 0
BBX 16 32 0 -8
BITMAP
0000
0000
0000
0000
0000
0000
0000
0000
0000
0000
0000
0000
FFF0
FFF0
00F0
00F0
FCF0
FCF0
3CF0
3CF0
3CF0
3CF0
3CF0
3CF0
3CF0
3CF0
3CF0
3CF0
3CF0
3CF0
3CF0
3CF0
ENDCHAR
STARTCHAR u2500
ENCODING 9472
SWIDTH 1332 0
DWIDTH 16 0
BBX 16 32 0 -8
BITMAP
0000
0000
0000
0000
0000
0000
0000
0000
0000
0000
0000
0000
0000
0000
FFFF
FFFF
0000
0000
0000
0000
0000
0000
0000
0000
0000
0000
0000
0000
0000
0000
0000
0000
ENDCHAR
STARTCHAR u00FC
ENCODING 252
SWIDTH 1332 0
DWIDTH 16 0
BBX 16 32 0 -8
BITMAP
0000
0000
0000
0000
0000
0000
3CF0
3CF0
3CF0
3CF0
0000
0000
F03C
F03C
F03C
F03C
F03C
F03C
F03C
F03C
F03C
F03C
F03C
F03C
F03C
F03C
3FCF
3FCF
0000
0000
0000
0000
ENDCHAR
STARTCHAR u004B
ENCODING 75
SWIDTH 1332 0
DWIDTH 16 0
BBX 16 32 0 -8
BITMAP
0000
0000
0000
0000
FC0F
FC0F
3C0F
3C0F
3C3C
3C3C
3C3C
3C3C
3CF0
3CF0
3FF0
3FF0
3CF0
3CF0
3C3C
3C3C
3C3C
3C3C
3C0F
3C0F
3C0F
3C0F
FC0F
FC0F
0000
0000
0000
0000
ENDCHAR
STARTCHAR u0028
ENCODING 40
SWIDTH 1332 0
DWIDTH 16 0
BBX 16 32 0 -8
BITMAP
0000
0000
0000
0000
00F0
00F0
03C0
03C0
03C0
03C0
0F00
0F00
0F00
0F00
0F00
0F00
0F00
0F00
0F00
0F00
0F00
0F00
0F00
0F00
03C0
03C0
03C0
03C0
00F0
00F0
0000
0000
ENDCHAR
STARTCHAR u0136
ENCODING 310
SWIDTH 1332 0
DWIDTH 16 0
BBX 16 32 0 -8
BITMAP
0000
0000
0000
0000
FC0F
FC0F
3C0F
3C0F
3C3C
3C3C
3C3C
3C3C
3CF0
3CF0
3FF0
3FF0
3CF0
3CF0
3C3C
3C3C
3C3C
3C3C
3C0F
3C0F
3C0F
3C0F
FC0F
FC0F
003C
003C
0FF0
0FF0
ENDCHAR
STARTCHAR u00FA
ENCODING 250
SWIDTH 1332 0
DWIDTH 16 0
BBX 16 32 0 -8
BITMAP
0000
0000
0000
0000
00F0
00F0
03C0
03C0
0F00
0F00
0000
0000
F03C
F03C
F03C
F03C
F03C
F03C
F03C
F03C
F03C
F03C
F03C
F03C
F03C
F03C
3FCF
3FCF
0000
0000
0000
0000
ENDCHAR
STARTCHAR u012F
ENCODING 303
SWIDTH 1332 0
DWIDTH 16 0
BBX 16 32 0 -8
BITMAP
0000
0000
0000
0000
0000
0000
03C0
03C0
03C0
03C0
0000
0000
0FC0
0FC0
03C0
03C0
03C0
03C0
03C0
03C0
03C0
03C0
03C0
03C0
03C0
03C0
0FF0
0FF0
0F00
0F00
03F0
03F0
ENDCHAR
STARTCHAR u00C0
ENCODING 192
SWIDTH 1332 0
DWIDTH 16 0
BBX 16 32 0 -8
BITMAP
0F00
0F00
03C0
03C0
0030
0030
0FC0
0FC0
3FF0
3FF0
FCFC
FCFC
F03C
F03C
F03C
F03C
FFFC
FFFC
F03C
F03C
F03C
F03C
F03C
F03C
F03C
F03C
F03C
F03C
0000
0000
0000
0000
ENDCHAR
STARTCHAR u003B
ENCODING 59
SWIDTH 1332 0
DWIDTH 16 0
BBX 16 32 0 -8
BITMAP
0000
0000
0000
0000
0000
0000
0000
0000
0000
0000
0000
0000
0FC0
0FC0
0FC0
0FC0
0000
0000
0000
0000
0000
0000
0000
0000
0FC0
0FC0
0FC0
0FC0
03C0
03C0
0F00
0F00
ENDCHAR
STARTCHAR u00D7
ENCODING 215
SWIDTH 1332 0
DWIDTH 16 0
BBX 16 32 0 -8
BITMAP
0000
0000
0000
0000
0000
0000
0000
0000
0000
0000
0000
0000
F03C
F03C
3CF0
3CF0
0FC0
0FC0
0FC0
0FC0
3CF0
3CF0
F03C
F03C
0000
0000
0000
0000
0000
0000
0000
0000
ENDCHAR
STARTCHAR u03C0
ENCODING 960
SWIDTH 1332 0
DWIDTH 16 0
BBX 16 32 0 -8
BITMAP
0000
0000
0000
0000
0000
0000
0000
0000
0000
0000
0000
0000
FFFC
FFFC
3CF0
3CF0
3CF0
3CF0
3CF0
3CF0
3CF0
3CF0
3CF0
3CF0
3CF0
3CF0
3CF0
3CF0
0000
0000
0000
0000
ENDCHAR
STARTCHAR u0116
ENCODING 278
SWIDTH 1332 0
DWIDTH 16 0
BBX 16 32 0 -8
BITMAP
03C0
03C0
03C0
03C0
FFFF
FFFF
3C0F
3C0F
3C03
3C03
3C00
3C00
3C30
3C30
3FF0
3FF0
3C30
3C30
3C00
3C00
3C00
3C00
3C03
3C03
3C0F
3C0F
FFFF
FFFF
0000
0000
0000
0000
ENDCHAR
STARTCHAR u0035
ENCODING 53
SWIDTH 1332 0
DWIDTH 16 0
BBX 16 32 0 -8
BITMAP
0000
0000
0000
0000
FFFC
FFFC
F000
F000
F000
F000
F000
F000
FFF0
FFF0
FC3C
FC3C
F00F
F00F
000F
000F
000F
000F
F00F
F00F
3C3C
3C3C
0FF0
0FF0
0000
0000
0000
0000
ENDCHAR
STARTCHAR u00F5
ENCODING 245
SWIDTH 1332 0
DWIDTH 16 0
BBX 16 32 0 -8
BITMAP
0000
0000
0000
0000
0000
0000
3F3C
3F3C
F3F0
F3F0
0000
0000
3FF0
3FF0
F03C
F03C
F03C
F03C
F03C
F03C
F03C
F03C
F03C
F03C
F03C
F03C
3FF0
3FF0
0000
0000
0000
0000
ENDCHAR
STARTCHAR u2523
ENCODING 9507
SWIDTH 1332 0
DWIDTH 16 0
BBX 16 32 0 -8
BITMAP
3CF0
3CF0
3CF0
3CF0
3CF0
3CF0
3CF0
3CF0
3CF0
3CF0
3CF0
3CF0
3CFF
3CFF
3C00
3C00
3CFF
3CFF
3CF0
3CF0
3CF0
3CF0
3CF0
3CF0
3CF0
3CF0
3CF0
3CF0
3CF0
3CF0
3CF0
3CF0
ENDCHAR
STARTCHAR u252C
ENCODING 9516
SWIDTH 1332 0
DWIDTH 16 0
BBX 16 32 0 -8
BITMAP
0000
0000
0000
0000
0000
0000
0000
0000
0000
0000
0000
0000
0000
0000
FFFF
FFFF
03C0
03C0
03C0
03C0
03C0
03C0
03C0
03C0
03C0
03C0
03C0
03C0
03C0
03C0
03C0
03C0
ENDCHAR
STARTCHAR u00DB
ENCODING 219
SWIDTH 1332 0
DWIDTH 16 0
BBX 16 32 0 -8
BITMAP
0FC0
0FC0
3CF0
3CF0
0000
0000
F03C
F03C
F03C
F03C
F03C
F03C
F03C
F03C
F03C
F03C
F03C
F03C
F03C
F03C
F03C
F03C
F03C
F03C
F03C
F03C
3FF0
3FF0
0000
0000
0000
0000
ENDCHAR
STARTCHAR u0101
ENCODING 257
SWIDTH 1332 0
DWIDTH 16 0
BBX 16 32 0 -8
BITMAP
0000
0000
0000
0000
0000
0000
0000
0000
3FF0
3FF0
0000
0000
3FF0
3FF0
003C
003C
3FFC
3FFC
F03C
F03C
F03C
F03C
F03C
F03C
F03C
F03C
3FCF
3FCF
0000
0000
0000
0000
ENDCHAR
STARTCHAR u0069
ENCODING 105
SWIDTH 1332 0
DWIDTH 16 0
BBX 16 32 0 -8
BITMAP
0000
0000
0000
0000
0000
0000
03C0
03C0
03C0
03C0
0000
0000
0FC0
0FC0
03C0
03C0
03C0
03C0
03C0
03C0
03C0
03C0
03C0
03C0
03C0
03C0
0FF0
0FF0
0000
0000
0000
0000
ENDCHAR
STARTCHAR u0055
ENCODING 85
SWIDTH 1332 0
DWIDTH 16 0
BBX 16 32 0 -8
BITMAP
0000
0000
0000
0000
F03C
F03C
F03C
F03C
F03C
F03C
F03C
F03C
F03C
F03C
F03C
F03C
F03C
F03C
F03C
F03C
F03C
F03C
F03C
F03C
F03C
F03C
3FF0
3FF0
0000
0000
0000
0000
ENDCHAR
STARTCHAR u00F8
ENCODING 248
SWIDTH 1332 0
DWIDTH 16 0
BBX 16 32 0 -8
BITMAP
0000
0000
0000
0000
0000
0000
0000
0000
0000
0000
003C
003C
3FF0
3FF0
F0FC
F0FC
F3FC
F3FC
F33C
F33C
F33C
F33C
FF3C
FF3C
FC3C
FC3C
3FF0
3FF0
F000
F000
0000
0000
ENDCHAR
STARTCHAR u014C
ENCODING 332
SWIDTH 1332 0
DWIDTH 16 0
BBX 16 32 0 -8
BITMAP
3FFC
3FFC
0000
0000
0FF0
0FF0
3C3C
3C3C
F00F
F00F
F00F
F00F
F00F
F00F
F00F
F00F
F00F
F00F
F00F
F00F
F00F
F00F
F00F
F00F
3C3C
3C3C
0FF0
0FF0
0000
0000
0000
0000
ENDCHAR
STARTCHAR u006F
ENCODING 111
SWIDTH 1332 0
DWIDTH 16 0
BBX 16 32 0 -8
BITMAP
0000
0000
0000
0000
0000
0000
0000
0000
0000
0000
0000
0000
3FF0
3FF0
F03C
F03C
F03C
F03C
F03C
F03C
F03C
F03C
F03C
F03C
F03C
F03C
3FF0
3FF0
0000
0000
0000
0000
ENDCHAR
STARTCHAR u0026
ENCODING 38
SWIDTH 1332 0
DWIDTH 16 0
BBX 16 32 0 -8
BITMAP
0000
0000
0000
0000
0FC0
0FC0
3CF0
3CF0
3CF0
3CF0
3CF0
3CF0
0FC0
0FC0
0FC0
0FC0
3CF3
3CF3
F0F3
F0F3
F03C
F03C
F03C
F03C
F0CF
F0CF
3F0F
3F0F
0000
0000
0000
0000
ENDCHAR
STARTCHAR u0022
ENCODING 34
SWIDTH 1332 0
DWIDTH 16 0
BBX 16 32 0 -8
BITMAP
0000
0000
FCFC
FCFC
FCFC
FCFC
3C3C
3C3C
F0F0
F0F0
0000
0000
0000
0000
0000
0000
0000
0000
0000
0000
0000
0000
0000
0000
0000
0000
0000
0000
0000
0000
0000
0000
ENDCHAR
STARTCHAR u00A4
ENCODING 164
SWIDTH 1332 0
DWIDTH 16 0
BBX 16 32 0 -8
BITMAP
0000
0000
0000
0000
0000
0000
0000
0000
C00C
C00C
F03C
F03C
3FF0
3FF0
F03C
F03C
F03C
F03C
F03C
F03C
F03C
F03C
3FF0
3FF0
F03C
F03C
C00C
C00C
0000
0000
0000
0000
ENDCHAR
STARTCHAR u00C4
ENCODING 196
SWIDTH 1332 0
DWIDTH 16 0
BBX 16 32 0 -8
BITMAP
3CF0
3CF0
3CF0
3CF0
0300
0300
0FC0
0FC0
3FF0
3FF0
FCFC
FCFC
F03C
F03C
F03C
F03C
FFFC
FFFC
F03C
F03C
F03C
F03C
F03C
F03C
F03C
F03C
F03C
F03C
0000
0000
0000
0000
ENDCHAR
STARTCHAR u00F2
ENCODING 242
SWIDTH 1332 0
DWIDTH 16 0
BBX 16 32 0 -8
BITMAP
0000
0000
0000
0000
3C00
3C00
0F00
0F00
03C0
03C0
0000
0000
3FF0
3FF0
F03C
F03C
F03C
F03C
F03C
F03C
F03C
F03C
F03C
F03C
F03C
F03C
3FF0
3FF0
0000
0000
0000
0000
ENDCHAR
STARTCHAR u2593
ENCODING 9619
SWIDTH 1332 0
DWIDTH 16 0
BBX 16 32 0 -8
BITMAP
3F3F
3F3F
F3F3
F3F3
3F3F
3F3F
F3F3
F3F3
3F3F
3F3F
F3F3
F3F3
3F3F
3F3F
F3F3
F3F3
3F3F
3F3F
F3F3
F3F3
3F3F
3F3F
F3F3
F3F3
3F3F
3F3F
F3F3
F3F3
3F3F
3F3F
F3F3
F3F3
ENDCHAR
ENDFONT
